<svg id="Layer_1" data-name="Layer 1" xmlns="http://www.w3.org/2000/svg" xmlns:xlink="http://www.w3.org/1999/xlink" viewBox="0 0 80.9 104.6"><defs><style>.cls-1{fill:url(#linear-gradient);}.cls-2{fill:url(#linear-gradient-2);}.cls-3{fill:url(#linear-gradient-3);}.cls-4{fill:url(#linear-gradient-4);}.cls-5{fill:url(#linear-gradient-5);}.cls-6{fill:url(#linear-gradient-6);}.cls-7{fill:#fff;}.cls-10,.cls-12,.cls-13,.cls-15,.cls-17,.cls-18,.cls-20,.cls-21,.cls-7,.cls-8{fill-rule:evenodd;}.cls-8{fill:url(#linear-gradient-7);}.cls-9{mask:url(#mask);}.cls-10{fill:#19b5fe;}.cls-11{mask:url(#mask-2);}.cls-12{fill:#102770;}.cls-13{fill:url(#未命名漸層_11);}.cls-14{mask:url(#mask-3);}.cls-15{fill:#92278f;}.cls-16{mask:url(#mask-4);}.cls-17{fill:#662d91;}.cls-18{fill:url(#linear-gradient-8);}.cls-19{mask:url(#mask-5);}.cls-20{fill:#39d5ff;}.cls-21{fill:url(#未命名漸層_11-2);}.cls-22{mask:url(#mask-6);}</style><linearGradient id="linear-gradient" x1="45224.53902" y1="-22785.98475" x2="45870.8371" y2="-23245.1389" gradientTransform="matrix(0.072, 0, 0, -0.072, -3263.6405, -1601.86795)" gradientUnits="userSpaceOnUse"><stop offset="0" stop-color="#fff"/><stop offset="1" stop-color="#fff" stop-opacity="0"/></linearGradient><linearGradient id="linear-gradient-2" x1="44905.97686" y1="-22508.00217" x2="46414.92862" y2="-23503.95906" xlink:href="#linear-gradient"/><linearGradient id="linear-gradient-3" x1="45551.07515" y1="-22363.61197" x2="46115.66802" y2="-23024.15854" xlink:href="#linear-gradient"/><linearGradient id="linear-gradient-4" x1="45259.4228" y1="-22606.45513" x2="46512.05474" y2="-23295.2121" xlink:href="#linear-gradient"/><linearGradient id="linear-gradient-5" x1="45375.18447" y1="-22732.69007" x2="46526.03255" y2="-23237.27107" xlink:href="#linear-gradient"/><linearGradient id="linear-gradient-6" x1="45390.7583" y1="-22558.59407" x2="46347.55737" y2="-23205.82357" xlink:href="#linear-gradient"/><linearGradient id="linear-gradient-7" x1="46070.88122" y1="-23532.02206" x2="45165.93427" y2="-22732.3776" gradientTransform="matrix(0.072, 0, 0, -0.072, -3263.6405, -1601.86795)" gradientUnits="userSpaceOnUse"><stop offset="0" stop-color="#004790"/><stop offset="1" stop-color="#19b5fe"/></linearGradient><mask id="mask" x="0.38349" y="38.89587" width="22.5076" height="26.80849" maskUnits="userSpaceOnUse"><g id="id0"><rect class="cls-1" x="0.38349" y="38.89587" width="22.5076" height="26.80849"/></g></mask><mask id="mask-2" x="3.93582" y="38.89587" width="49.91831" height="37.91132" maskUnits="userSpaceOnUse"><g id="id2"><rect class="cls-2" x="3.93582" y="38.89587" width="49.91831" height="37.91132"/></g></mask><linearGradient id="未命名漸層_11" x1="46426.1573" y1="-23110.47115" x2="45614.69567" y2="-22465.18577" gradientTransform="matrix(0.072, 0, 0, -0.072, -3263.6405, -1601.86795)" gradientUnits="userSpaceOnUse"><stop offset="0" stop-color="#662d91"/><stop offset="1" stop-color="#92278f"/></linearGradient><mask id="mask-3" x="15.82114" y="12.2339" width="38.0328" height="36.14812" maskUnits="userSpaceOnUse"><g id="id4"><rect class="cls-3" x="15.82114" y="12.2339" width="38.0328" height="36.14812"/></g></mask><mask id="mask-4" x="18.90984" y="38.89587" width="43.10521" height="23.75505" maskUnits="userSpaceOnUse"><g id="id6"><rect class="cls-4" x="18.90984" y="38.89587" width="43.10521" height="23.75505"/></g></mask><linearGradient id="linear-gradient-8" x1="47016.15024" y1="-23842.98781" x2="45442.12835" y2="-22656.58864" xlink:href="#linear-gradient-7"/><mask id="mask-5" x="3.79161" y="26.26685" width="72.20726" height="49.26379" maskUnits="userSpaceOnUse"><g id="id8"><rect class="cls-5" x="3.79161" y="26.26685" width="72.20726" height="49.26379"/></g></mask><linearGradient id="未命名漸層_11-2" x1="46891.69535" y1="-23578.37693" x2="45538.15942" y2="-22693.62933" xlink:href="#未命名漸層_11"/><mask id="mask-6" x="14.49021" y="27.78504" width="49.26318" height="35.97962" maskUnits="userSpaceOnUse"><g id="id10"><rect class="cls-6" x="14.49021" y="27.78504" width="49.26318" height="35.97962"/></g></mask></defs><g id="Layer_1-2" data-name="Layer_1"><g id="_2327149943952" data-name=" 2327149943952"><path class="cls-7" d="M52.08059,44.016a2.49479,2.49479,0,0,0-1.42667-3.11143,2.49483,2.49483,0,0,0,3.0227-1.60634,2.49411,2.49411,0,0,0,1.42646,3.11143A2.49459,2.49459,0,0,0,52.08059,44.016Z"/><path class="cls-7" d="M49.18908,52.13618a2.495,2.495,0,0,0-2.64672-2.17059,2.49433,2.49433,0,0,0,2.012-2.769,2.49447,2.49447,0,0,0,2.6463,2.17081,2.49393,2.49393,0,0,0-2.01182,2.7688Z"/><path class="cls-7" d="M45.07544,45.68851a5.0944,5.0944,0,0,0-5.72466-4.011A5.09433,5.09433,0,0,0,43.02,35.7279a5.09343,5.09343,0,0,0,5.72462,4.01079,5.09419,5.09419,0,0,0-3.66916,5.9496Z"/><path class="cls-8" d="M7.73321,38.969H2.09629A1.64309,1.64309,0,0,0,.45666,40.60889V63.99133A1.64292,1.64292,0,0,0,2.09629,65.631H25.479a1.64288,1.64288,0,0,1,1.63963,1.63963V90.6533a1.64307,1.64307,0,0,0,1.63967,1.63963H52.1407a1.64289,1.64289,0,0,0,1.63963-1.63963V70.48624a113.783,113.783,0,0,1-21.37906-9.918C18.88644,52.67934,11.68515,46.2378,7.95758,39.399q-.11768-.216-.22456-.43038Z"/><g class="cls-9"><path class="cls-10" d="M7.73321,38.969H2.09629A1.64309,1.64309,0,0,0,.45666,40.60889V63.99133A1.64292,1.64292,0,0,0,2.09629,65.631H21.604q-.08442-1.13863-.08559-2.299a30.62959,30.62959,0,0,1,1.29931-8.84681c-7.55047-5.297-12.13413-10.08544-14.85993-15.086q-.11763-.216-.22456-.43038Z"/></g><g class="cls-11"><path class="cls-12" d="M7.73321,38.969H4.009a28.55154,28.55154,0,0,0,4.25833,7.87941c5.68055,7.69364,14.43228,14.28237,22.577,19.1427C37.51608,69.97258,45.73224,74.244,53.78078,76.7338V72.35341c-2.29922-.81708-4.5586-1.76744-6.72264-2.7608A123.84782,123.84782,0,0,1,31.83468,61.1654,103.37878,103.37878,0,0,1,16.60619,49.67355,37.50605,37.50605,0,0,1,7.95777,39.399q-.11768-.216-.22456-.43034Z"/></g><path class="cls-13" d="M52.14111,12.30707H28.75867A1.64292,1.64292,0,0,0,27.119,13.94673V37.32918a1.64291,1.64291,0,0,1-1.63966,1.63963H15.89475c3.94815,4.99485,10.777,10.881,18.357,15.5623,14.233,8.79074,27.47313,13.05075,30.189,9.25906,4.20306-5.86884-17.46384-20.85908-17.81829-21.09439.78568.43309,17.88156,7.88487,24.34716,17.03893a14.27816,14.27816,0,0,1,2.67473,5.89607h5.15933a1.64289,1.64289,0,0,0,1.63963-1.63964V40.60867a1.6431,1.6431,0,0,0-1.63963-1.63986H55.42126a1.64308,1.64308,0,0,1-1.63985-1.63963V13.94673a1.643,1.643,0,0,0-1.63966-1.63966ZM52.08059,44.016a2.49479,2.49479,0,0,0-1.42667-3.11143,2.4948,2.4948,0,0,0,3.02267-1.60634,2.49415,2.49415,0,0,0,1.42649,3.11143A2.49457,2.49457,0,0,0,52.08059,44.016ZM49.1893,52.13618a2.495,2.495,0,0,0-2.64672-2.17059,2.49436,2.49436,0,0,0,2.012-2.769,2.49445,2.49445,0,0,0,2.64627,2.17081,2.4939,2.4939,0,0,0-2.01179,2.7688Zm-4.11389-6.44789a5.09443,5.09443,0,0,0-5.72463-4.011,5.09425,5.09425,0,0,0,3.66916-5.9496,5.09347,5.09347,0,0,0,5.72463,4.01075,5.09427,5.09427,0,0,0-3.66916,5.94964Z"/><g class="cls-14"><path class="cls-15" d="M52.14111,12.30707H28.75867A1.64292,1.64292,0,0,0,27.119,13.94673V37.32918a1.64291,1.64291,0,0,1-1.63966,1.63963H15.89475a61.89846,61.89846,0,0,0,9.55743,9.33963,30.61886,30.61886,0,0,1,26.697-15.60678q.82138,0,1.63183.04363V13.94673a1.64292,1.64292,0,0,0-1.63964-1.63966Z"/></g><g class="cls-16"><path class="cls-17" d="M21.50131,38.969H18.983C29.03553,50.746,56.47957,65.51922,61.2239,62.06766c2.91535-2.12167-3.2677-10.27351-14.602-19.37169,1.755,1.51018,16.768,15.5935,11.81532,17.24939-4.27705,1.42983-22.31927-9.08807-24.73425-10.74477A73.01736,73.01736,0,0,1,21.50131,38.96881Z"/></g><path class="cls-18" d="M68.52409,56.82251c12.12042,11.9368,8.69523,19.93955-5.47075,18.45868-7.48258-.78208-17.96209-4.21043-30.72966-11.10261C21.75329,58.47271,13.90867,52.087,9.162,46.20659.92624,36.00309,2.01765,27.319,14.38543,26.34c-6.09366.622-10.1392,6.2503-6.42766,13.05958A30.48583,30.48583,0,0,0,10.75126,43.62c4.19358,5.35291,10.939,10.6963,21.65064,16.94872C43.42313,67.002,53.611,71.02624,61.0122,72.36963a24.47568,24.47568,0,0,0,3.04377.36584c8.61152.46348,12.84389-4.60305,6.91368-13.00035a24.67982,24.67982,0,0,0-2.44533-2.91261ZM14.18847,27.9105a3.573,3.573,0,0,1,4.55985-1.80076,3.57354,3.57354,0,0,1-1.53149-4.65747,3.57248,3.57248,0,0,1-4.55941,1.80118,3.5726,3.5726,0,0,1,1.53105,4.65724Z"/><g class="cls-19"><path class="cls-20" d="M68.52409,56.82274c12.12042,11.93657,8.69523,19.93954-5.47075,18.45845-7.48236-.78208-17.9619-4.21043-30.72944-11.10261C21.75348,58.47271,13.90867,52.08726,9.162,46.20659.92624,36.00287,2.01788,27.319,14.38562,26.34a10.48736,10.48736,0,0,0-1.39041.23614c-4.333.89173-6.85629,2.98409-7.50576,5.91693-2.32957,10.524,17.59964,24.26849,25.39639,28.94326A104.63634,104.63634,0,0,0,53.25276,71.73054c6.79941,2.074,23.83246,5.23373,20.89981-6.83777-.563-2.31755-2.56068-4.81373-5.16164-7.57788q-.22934-.24733-.46665-.49238Z"/></g><path class="cls-21" d="M15.22126,38.08849a24.26235,24.26235,0,0,1-1.38386-2.07823c-3.09-5.25336,3.14307-10.21827,8.47211-7.732-5.623-.99652-8.1611,3.12619-5.62,7.55173,7.13464,12.062,39.35614,30.00491,44.53464,26.2375,2.91535-2.12126-3.26792-10.27332-14.602-19.37147.35445.2355,22.02157,15.22574,17.81828,21.09461-2.71545,3.79147-15.95554-.46854-30.18877-9.25928-8.0302-4.95921-15.21777-11.27152-19.03011-16.44306Z"/><g class="cls-22"><path class="cls-15" d="M61.22412,62.06766c2.91535-2.12126-3.26792-10.27329-14.602-19.37147.03943.02615.34348.23553.84661.59483Q62.91975,55.43876,63.64374,60.6802c.687,4.9723-8.5413,2.47318-10.80975,1.66663A106.63989,106.63989,0,0,1,28.27811,49.12909c-3.22614-2.32726-9.3708-7.32884-12.20793-11.961a9.12306,9.12306,0,0,1-1.4952-4.0308c-.21656-3.49542,2.622-6.39095,7.73453-4.85885-5.623-.99652-8.1611,3.12622-5.62,7.55173q.11735.19863.24394.39958c7.59518,12.054,39.1689,29.564,44.29048,25.83792Z"/></g></g></g></svg>