<svg id="Layer_1" data-name="Layer 1" xmlns="http://www.w3.org/2000/svg" xmlns:xlink="http://www.w3.org/1999/xlink" viewBox="0 0 327.9 104.6"><defs><style>.cls-1{fill:url(#linear-gradient);}.cls-2{fill:url(#linear-gradient-2);}.cls-3{fill:url(#linear-gradient-3);}.cls-4{fill:url(#linear-gradient-4);}.cls-5{fill:url(#linear-gradient-5);}.cls-6{fill:url(#linear-gradient-6);}.cls-14,.cls-7{fill:#fff;}.cls-7{fill-rule:evenodd;}.cls-8{mask:url(#mask);}.cls-9{mask:url(#mask-2);}.cls-10{mask:url(#mask-3);}.cls-11{mask:url(#mask-4);}.cls-12{mask:url(#mask-5);}.cls-13{mask:url(#mask-6);}</style><linearGradient id="linear-gradient" x1="40814.98" y1="-22812.33" x2="41370.99" y2="-23207.34" gradientTransform="matrix(0.07, 0, 0, -0.07, -2940.79, -1601.87)" gradientUnits="userSpaceOnUse"><stop offset="0" stop-color="#fff"/><stop offset="1" stop-color="#fff" stop-opacity="0"/></linearGradient><linearGradient id="linear-gradient-2" x1="40540.92" y1="-22573.18" x2="41839.07" y2="-23430" xlink:href="#linear-gradient"/><linearGradient id="linear-gradient-3" x1="41095.89" y1="-22448.96" x2="41581.61" y2="-23017.23" xlink:href="#linear-gradient"/><linearGradient id="linear-gradient-4" x1="40844.99" y1="-22657.88" x2="41922.62" y2="-23250.42" xlink:href="#linear-gradient"/><linearGradient id="linear-gradient-5" x1="40944.58" y1="-22766.48" x2="41934.65" y2="-23200.57" xlink:href="#linear-gradient"/><linearGradient id="linear-gradient-6" x1="40957.97" y1="-22616.7" x2="41781.11" y2="-23173.51" xlink:href="#linear-gradient"/><mask id="mask" x="4.65" y="40.77" width="19.36" height="23.06" maskUnits="userSpaceOnUse"><g id="id0"><rect class="cls-1" x="4.65" y="40.77" width="19.36" height="23.06"/></g></mask><mask id="mask-2" x="7.7" y="40.77" width="42.94" height="32.62" maskUnits="userSpaceOnUse"><g id="id2"><rect class="cls-2" x="7.7" y="40.77" width="42.94" height="32.62"/></g></mask><mask id="mask-3" x="17.93" y="17.83" width="32.72" height="31.1" maskUnits="userSpaceOnUse"><g id="id4"><rect class="cls-3" x="17.93" y="17.83" width="32.72" height="31.1"/></g></mask><mask id="mask-4" x="20.59" y="40.77" width="37.08" height="20.44" maskUnits="userSpaceOnUse"><g id="id6"><rect class="cls-4" x="20.59" y="40.77" width="37.08" height="20.44"/></g></mask><mask id="mask-5" x="7.58" y="29.9" width="62.12" height="42.38" maskUnits="userSpaceOnUse"><g id="id8"><rect class="cls-5" x="7.58" y="29.9" width="62.12" height="42.38"/></g></mask><mask id="mask-6" x="16.78" y="31.21" width="42.38" height="30.95" maskUnits="userSpaceOnUse"><g id="id10"><rect class="cls-6" x="16.78" y="31.21" width="42.38" height="30.95"/></g></mask></defs><g id="Layer_1-2" data-name="Layer_1"><g id="_2327149943952" data-name=" 2327149943952"><path class="cls-7" d="M11,40.83H6.12a1.42,1.42,0,0,0-1.41,1.41V62.36a1.42,1.42,0,0,0,1.41,1.41H26.24a1.41,1.41,0,0,1,1.41,1.41V85.3a1.41,1.41,0,0,0,1.41,1.41H49.18a1.42,1.42,0,0,0,1.41-1.41V68a98.09,98.09,0,0,1-18.4-8.54c-11.62-6.78-17.82-12.33-21-18.21L11,40.83Z"/><g class="cls-8"><path class="cls-7" d="M11,40.83H6.12a1.42,1.42,0,0,0-1.41,1.41V62.36a1.42,1.42,0,0,0,1.41,1.41H22.9c0-.65-.07-1.31-.07-2A26.19,26.19,0,0,1,24,54.18c-6.5-4.56-10.44-8.68-12.79-13L11,40.83Z"/></g><g class="cls-9"><path class="cls-7" d="M11,40.83H7.77a24.41,24.41,0,0,0,3.66,6.78c4.89,6.62,12.42,12.29,19.42,16.47a95.45,95.45,0,0,0,19.74,9.24V69.55c-2-.7-3.93-1.52-5.79-2.37a107,107,0,0,1-13.09-7.25A89.26,89.26,0,0,1,18.6,50a32.33,32.33,0,0,1-7.44-8.84L11,40.83Z"/></g><path class="cls-7" d="M49.18,17.89H29.06a1.41,1.41,0,0,0-1.41,1.41V39.42a1.41,1.41,0,0,1-1.41,1.41H18c3.4,4.3,9.27,9.36,15.8,13.39,12.24,7.56,23.63,11.23,26,8,3.61-5-15-17.94-15.33-18.14.67.37,15.38,6.78,20.94,14.66a12.14,12.14,0,0,1,2.3,5.07h4.44a1.41,1.41,0,0,0,1.41-1.41V42.24a1.41,1.41,0,0,0-1.41-1.41H52a1.41,1.41,0,0,1-1.41-1.41V19.3a1.42,1.42,0,0,0-1.41-1.41Zm-.06,27.28A2.14,2.14,0,0,0,47.9,42.5a2.15,2.15,0,0,0,2.6-1.39,2.14,2.14,0,0,0,1.22,2.68A2.15,2.15,0,0,0,49.12,45.17Zm-2.48,7a2.16,2.16,0,0,0-2.28-1.87,2.14,2.14,0,0,0,1.73-2.38,2.15,2.15,0,0,0,2.28,1.87,2.14,2.14,0,0,0-1.73,2.38ZM43.1,46.61a4.4,4.4,0,0,0-4.93-3.45A4.38,4.38,0,0,0,41.33,38a4.37,4.37,0,0,0,4.92,3.45,4.39,4.39,0,0,0-3.15,5.12Z"/><g class="cls-10"><path class="cls-7" d="M49.18,17.89H29.06a1.41,1.41,0,0,0-1.41,1.41V39.42a1.41,1.41,0,0,1-1.41,1.41H18a53.13,53.13,0,0,0,8.23,8,26.32,26.32,0,0,1,23-13.43c.47,0,.94,0,1.41,0V19.3a1.42,1.42,0,0,0-1.41-1.41Z"/></g><g class="cls-11"><path class="cls-7" d="M22.82,40.83H20.65C29.3,51,52.91,63.67,57,60.7,59.5,58.88,54.18,51.86,44.43,44c1.51,1.3,14.42,13.41,10.16,14.84-3.68,1.23-19.2-7.82-21.28-9.25a62.22,62.22,0,0,1-10.49-8.8Z"/></g><path class="cls-7" d="M63.27,56.19c10.43,10.27,7.48,17.15-4.71,15.88-6.43-.67-15.45-3.62-26.43-9.55C23,57.61,16.28,52.12,12.2,47.06,5.12,38.28,6.05,30.81,16.69,30,11.45,30.5,8,35.34,11.16,41.2a25.93,25.93,0,0,0,2.41,3.63C17.18,49.44,23,54,32.19,59.41c9.49,5.54,18.25,9,24.62,10.16a21.14,21.14,0,0,0,2.62.31c7.4.4,11.05-4,5.94-11.18a20.1,20.1,0,0,0-2.1-2.51ZM16.52,31.32a3.09,3.09,0,0,1,3.93-1.55,3.09,3.09,0,0,1-1.32-4,3.07,3.07,0,0,1-3.92,1.55,3.07,3.07,0,0,1,1.31,4Z"/><g class="cls-12"><path class="cls-7" d="M63.27,56.19c10.43,10.27,7.48,17.15-4.71,15.88-6.43-.67-15.45-3.62-26.43-9.55C23,57.61,16.28,52.12,12.2,47.06,5.12,38.28,6.05,30.81,16.69,30a9,9,0,0,0-1.19.2c-3.73.77-5.9,2.57-6.46,5.09-2,9.05,15.14,20.88,21.85,24.9A90.17,90.17,0,0,0,50.13,69c5.85,1.78,20.5,4.5,18-5.89-.48-2-2.2-4.14-4.44-6.52l-.4-.42Z"/></g><path class="cls-7" d="M17.41,40.07c-.45-.61-.85-1.21-1.19-1.78-2.66-4.52,2.71-8.79,7.29-6.66-4.84-.85-7,2.69-4.83,6.5C24.81,48.51,52.53,63.94,57,60.7,59.5,58.88,54.18,51.86,44.43,44c.3.2,18.94,13.1,15.33,18.15-2.34,3.26-13.73-.41-26-8-6.91-4.27-13.1-9.7-16.38-14.15Z"/><g class="cls-13"><path class="cls-7" d="M57,60.7C59.5,58.88,54.18,51.87,44.43,44l.73.51Q58.45,55,59.07,59.51c.59,4.28-7.35,2.13-9.3,1.43A91.71,91.71,0,0,1,28.65,49.57c-2.78-2-8.07-6.3-10.51-10.29a7.76,7.76,0,0,1-1.28-3.47c-.19-3,2.25-5.49,6.65-4.18-4.84-.85-7,2.69-4.83,6.5a3.13,3.13,0,0,0,.21.34C25.42,48.84,52.58,63.91,57,60.7Z"/></g></g></g><path class="cls-14" d="M101.34,48.77h1.91l4.4-.09.22.21-.09,3.4v3.89l.09,4-.22.21-4.4-.09h-1.91v3.92H105l5-.09.22.22v3.58l-.22.22-5-.1H86.71l-5,.1-.22-.22V64.31l.22-.22,5,.09H90.2V60.26H88.56l-4.4.09-.22-.21.1-4V52.29l-.1-3.4.22-.21,4.4.09H90.2V45.25H87.37l-5,.09-.22-.22V41.66l.22-.21,5,.09h17.1l5-.09.21.21v3.46l-.21.22-5-.09h-3.13Zm-6.92-3.52v3L94.51,52l-.18.22-4.13-.09H88.13V56.8h2.1l4.1-.09.18.09-.09,3.37v4h2.64v-4L97,56.92l.21-.21,4.1.09h2.22V52.17h-2.22l-4.1.09L97,52l.09-3.77v-3Z"/><path class="cls-14" d="M115.49,54.08l-.37.09a22,22,0,0,0-3.55-2.81l-.09-.24,2.28-2.75.36-.1a23.53,23.53,0,0,1,3.7,2.41l.09.31Zm-3.8,12.6a43.88,43.88,0,0,0,3.61-9.76l3,2.13c.3.22.27.44.21.75a67.47,67.47,0,0,1-3.1,9.08l-.3.15-3.31-2.1Zm4.8-20.38-.37.06a20,20,0,0,0-3.64-2.94l-.06-.24,2.4-2.63.36-.06A29.79,29.79,0,0,1,119,43.08l.06.31Zm16.06,12,.15,9h-4.28l.15-9V55.47l-1.73,1-.27-.06a30.48,30.48,0,0,0-.79-6.06v4.76c0,8-1.88,11.06-5.38,13.84a.74.74,0,0,1-.45.21.71.71,0,0,1-.46-.24l-2.79-2.35c3.64-2.38,5.07-5.13,5.07-11.34v-14L122,41h3.62l.18.25v7.69l1.61-.83.24.09a39.32,39.32,0,0,1,.94,4.14V41.63l.21-.21h3.59l.18.24v7.48l1.67-.84.24.1c.33,1.26.64,2.72.85,4V41l.21-.22h3.68l.18.25V57l.15,12.17h-4.37l.15-12.1V55.44l-1.76,1.11-.27-.06a48.07,48.07,0,0,0-.73-5.62ZM119,48.15l2.4.74.15.25a38.85,38.85,0,0,1-1.19,7.69L120,57l-2.55-1-.15-.25a28.31,28.31,0,0,0,1.39-7.51Z"/><path class="cls-14" d="M157.78,46.33a64.61,64.61,0,0,1,11.32,3l.06.31-2.1,2.5,3.86-.06.21.22v3.4l-.21.21-3.79-.06v3.31l.15,6c0,3-1.49,4.26-6,4.26-.61,0-.64-.06-.79-.37L159,65.42l.06,1.7h-4.37V65.7h-4.31v1.88h-4.22l.15-4.32V60.48l-.09-3.19.18-.21,4.55.09h3.31l4.53-.09.21.21-.09,3.19v2.16L159,65a28.25,28.25,0,0,0,2.94-.13c.64-.06.82-.25.82-1V55.78H147.27l-5,.09-.21-.21v-3.4l.21-.22,3,.06-1.64-2.93c5.22-.46,8.07-1.42,9.47-3.31h-3.52l-5,.1-.21-.22v-3.3l.21-.22,5,.09h4.58a4.86,4.86,0,0,0,0-.68V40l.21-.22h4l.21.22v2.31h5l5-.09.22.22v3.3l-.22.22-5-.1H158ZM165,52.14a55.82,55.82,0,0,0-5.34-1.8c-1.4-.37-2.86-.68-4.28-1a14.5,14.5,0,0,1-7.08,2.75Zm-10.38,8.27h-4.31v2h4.31Z"/><path class="cls-14" d="M181.33,55l2.52-.06.18.15v3.31l-.18.15-2.52-.06v4c.91-.24,1.82-.49,2.74-.77V65c0,.38-.19.5-.52.59-2.79.9-6,1.82-9.72,2.78l-.27-.09-1.3-3.55.21-.28c.33-.06.67-.09,1-.16V54.42l.21-.25h2.89l.21.22v9.24c.3-.07.58-.13.88-.22V51.55h-.79l-3,.09-.21-.25.15-3.09V43.86l-.09-2.75.22-.22,3,.09h3.49l3-.09.21.22-.09,2.75V48.4l0,.77,4,.09h2.73v-.89h-.85l-3.83.09-.21-.19V46l.18-.19,3.86.1h.85V45h-1.64l-4,.09-.21-.18V42.37l.18-.18,4,.09h1.64V40.34l.21-.25h3.74l.24.21v2h2.24l4.16-.09.19.15v2.6l-.19.15L196.72,45h-2.24v.9h1.27l3.86-.1.18.16V48.3l-.18.16-3.86-.09h-1.27v.89h3.16l3.85-.09.18.15V52l-.18.16-3.85-.1H187.56l-4,.1-.21-.19v-.37l0,0-2-.06Zm-1.42-6.77v-4h-2.52v4ZM192,66.34v.34a31,31,0,0,1-7.44,2.63,2.35,2.35,0,0,1-.42.06.63.63,0,0,1-.55-.31l-1.79-2.47a27.89,27.89,0,0,0,6.56-1.88l-2.8.06-.21-.22.09-4.32V56.37L185.31,53l.21-.19,4.1.1h6l3.89-.1.24.25-.09,3.46v3.55l.09,4.48-.27.22-3.77-.09a38.42,38.42,0,0,1,6,1.7l.06.3-2,2.48-.36.09a36.43,36.43,0,0,0-6.53-2.38l-.06-.25,1.85-1.94h-4.86Zm3.79-10.87h-6.52v.87h6.52Zm-6.52,2.84v.87h6.52v-.87Zm0,3.77h6.52v-.92h-6.52Z"/><path class="cls-14" d="M207.65,46.51H206.1l-2.94.1-.24-.22V43.18l.21-.19,3,.09h1.55V40l.22-.25h3.3l.13.28v3h1l3-.09.22.22v3.18l-.22.22-3-.1h-1v1.33h.57l3.31-.12.15.21,0,3v5.19l0,3.31-.15.24-3.52-.09h-.36V61h1.24l3-.09.21.21v3.19l-.21.21-3-.09h-1.21l.09,4.79h-3.95l.09-4.79H206.1l-3.24.09-.25-.21V61.09l.22-.18,3.27.09h1.49V59.61h-.24l-3.55.09-.18-.21.15-3.34V51l-.09-3,.24-.21,3.25.12h.48Zm.28,4.11h-1.16v1.73h1.16ZM206.77,55v1.85h1.16V55Zm5.38-2.63V50.62H211v1.73ZM211,56.83h1.13V55H211Zm14.27,12.29h-3.64l.06-6.61H220V69.4h-3.73l.15-9V51.86l-.09-3,.18-.22,3,.1h2.1V47.07H220l-3.8.09L216,47V43.61l.15-.19,3.83.1h1.64V40.18l.15-.22h3.37l.12.25v3.31h2.4a14.35,14.35,0,0,0-1.79-1.83l.06-.27,2-1.55.31.06a18.45,18.45,0,0,1,2.64,2.35v.31l-1.25.9,2-.07.15.16V47l-.15.15L228,47.07h-2.73v1.67h2.46l3-.1.21.22-.09,3v7.53l.12,5.94c0,3.15-.64,3.89-4,3.89-.45,0-.51-.06-.61-.37l-1.09-3.31a8,8,0,0,0,1.34-.09c.36-.06.54-.19.54-.65V62.51h-1.94Zm-3.55-17.05H220v2h1.7Zm0,5.16H220v2.13h1.7Zm5.43-3.15v-2h-2v2Zm0,5.28V57.23h-2v2.13Z"/><path class="cls-14" d="M248.45,62.48l-4.19.07-.21-.19.09-3.09v-1.2c-.42.34-.85.64-1.27.92a.79.79,0,0,1-.37.16c-.15,0-.24-.1-.42-.28l-.94-1a19.93,19.93,0,0,1-4.22,11.27c-.12.13-.21.19-.31.19a.26.26,0,0,1-.18-.09l-3-2.81a15.62,15.62,0,0,0,3.76-9.7,22,22,0,0,1-3,1.63l-.34-.12-.94-3.95.21-.22a31.78,31.78,0,0,0,4.16-1.36V49.48L234.7,51l-.3-.06a26,26,0,0,0-1.49-4.88l.15-.28,2.58-1.51.31,0a17.47,17.47,0,0,1,1.36,3.12v-.06l-.09-4.73.21-.21,5,.09h5V40l.22-.22h4.06L252,40v2.5h4.79l5-.09.21.21v3.21l-.21.22-5-.09h-5.86l1.55.4.06.28c-.09.31-.21.62-.3.89h5.37l3.8-.09.21.22v2.78l-.21.21-2.16-.06,2.31,1.61,0,.21a23.79,23.79,0,0,1-2.13,1.83,23.38,23.38,0,0,0,3,1.66l-2,2.75c-.13.19-.22.25-.34.25a.83.83,0,0,1-.39-.18c-.46-.31-.88-.62-1.31-1v1.48l.09,3.09-.21.19-4.19-.07h-.85v.71l.12,2.75c0,2.57-1.15,3.46-4.73,3.46-.58,0-.64-.06-.76-.34l-1.19-2.72a21.42,21.42,0,0,1-4.09,2.54,1.13,1.13,0,0,1-.4.09c-.18,0-.3-.09-.49-.31l-2-2.44a16,16,0,0,0,5.71-3.61h.3l2.67,1.82v.31a15.54,15.54,0,0,1-1.6,1.48c.75,0,1.24,0,1.76-.06s.76-.25.76-.93V62.48Zm-6.61-12V47.66l.21-.19,3.4.09h2.7c.18-.52.33-1.05.49-1.57h-7.38v8.62c0,.4,0,.8,0,1.17a23.47,23.47,0,0,0,2.15-1.48,15.59,15.59,0,0,0-1.79-1.55v-.27l2-1.83-1.55,0Zm2.15.15a12.5,12.5,0,0,1,1.7,1.45,11.33,11.33,0,0,0,1.06-1.48h-1.3Zm10.75,6v-1h-7v1Zm-7,3.31h7V58.87h-7Zm6-6.86a15.4,15.4,0,0,1-1.61-2.47h-1.28a17.94,17.94,0,0,1-1.64,2.47Zm5.64,15.72h-.3a27.11,27.11,0,0,0-5.4-3.64v-.28l2.3-2.22h.31A32,32,0,0,1,261.75,66v.31Zm-3.55-18.19c.4.56.82,1,1.25,1.55a13.53,13.53,0,0,0,1.42-1.52l-.88,0Z"/><path class="cls-14" d="M269.7,58.62v1.82h-4.49l.15-7.41V49.51l-.09-3.71.21-.21,4.53.09h5.52V40.09l.22-.22h4.06l.22.22v5.59H286l4.52-.06.21.21-.06,3.68v3.43l.15,7.26h-4.61V58.62H280v1.73l.15,9h-4.8l.15-9V58.62Zm5.83-9.23H269.7v5.53h5.83Zm10.63,5.53V49.39H280v5.53Z"/><path class="cls-14" d="M300.7,53l.12.34a48.81,48.81,0,0,1-3,10.38l-.31.09-3.64-1.67-.06-.31a36.13,36.13,0,0,0,3-10l.28-.16Zm5.92,10c0,.89.21,1.11,2.13,1.11,2.09,0,2.85-.09,3.46-.59s.79-1.36,1-3.86L317,61.22c.34.15.37.24.34.61-.34,2.94-.82,4.3-1.67,5-1,.93-2.22,1.33-6.77,1.33-5.86,0-6.74-.74-6.74-3.34l.06-6.21V48.55l.21-.25h3.95l.24.28Zm1.15-22.46.31-.06a27.36,27.36,0,0,1,5.1,4.45l-.06.31L310,48l-.27,0a27.5,27.5,0,0,0-4.89-4.79v-.31ZM317,49.17l.34,0a41.34,41.34,0,0,1,5.76,9.3l-.09.31-3.52,2.25-.3-.06a49.26,49.26,0,0,0-5.38-9.45l.07-.31Z"/><path class="cls-14" d="M88.94,83.53H87l-.49-2.14H83.89l-.47,2.14H81.57l2.15-9.14h3.07Zm-3.49-6.68c-.1-.41-.18-.83-.24-1.25h0c-.06.42-.15.84-.25,1.25l-.65,2.9H86.1Z"/><path class="cls-14" d="M90.83,81.25c.35.79.78,1.13,1.28,1.13s.64-.22.64-.52c0-.5-.45-.68-1.53-1s-1.64-.89-1.64-1.93A2.15,2.15,0,0,1,92,76.71a2.27,2.27,0,0,1,2.44,1.76L92.91,79a1.12,1.12,0,0,0-1-1,.51.51,0,0,0-.58.55c0,.35.24.55,1,.77,1.44.43,2.18,1,2.18,2.2s-1,2.18-2.54,2.18a2.53,2.53,0,0,1-2.6-1.81Z"/><path class="cls-14" d="M97.37,75a1.08,1.08,0,0,1-1.07,1.16,1,1,0,0,1-1-1.16,1,1,0,0,1,1-1.13A1,1,0,0,1,97.37,75Zm-.15,8.55H95.39V76.85h1.83Z"/><path class="cls-14" d="M103.6,81.33c0,.42.14.62.42.62h.15v1.4a2.35,2.35,0,0,1-1,.19c-.7,0-1-.26-1.17-.76a2.08,2.08,0,0,1-3.77-1.11c0-1.39,1-2.12,2.65-2.12a4.58,4.58,0,0,1,.86.08v-.4c0-.81-.28-1.18-.77-1.18s-.79.34-.91,1.09l-1.56-.32a2.45,2.45,0,0,1,2.6-2.07,2.24,2.24,0,0,1,2.48,2.39Zm-1.84-.42a2.86,2.86,0,0,0-.76-.1c-.56,0-.92.3-.92.8a.68.68,0,0,0,.74.69C101.45,82.3,101.76,81.88,101.76,80.91Z"/><path class="cls-14" d="M106.66,77.75a1.86,1.86,0,0,1,1.77-1c1.09,0,1.94.71,1.94,2.27v4.52h-1.83v-4.1c0-.9-.25-1.22-.85-1.22s-.93.35-.93,1.22v4.1h-1.83V76.85h1.71v.9Z"/><path class="cls-14" d="M122.7,74.39v9.14h-1.77V80c0-1.26,0-2.5.11-3.75h-.1l-1.61,7.32h-1.58l-1.64-7.32H116c.09,1.24.11,2.47.11,3.75v3.57h-1.77V74.39h3l.8,3.61a22,22,0,0,1,.46,3.12h.1a23.88,23.88,0,0,1,.41-3.11l.79-3.62Z"/><path class="cls-14" d="M126.2,75a1.08,1.08,0,0,1-1.07,1.16,1,1,0,0,1-1-1.16,1,1,0,0,1,1-1.13A1,1,0,0,1,126.2,75Zm-.15,8.55h-1.83V76.85h1.83Z"/><path class="cls-14" d="M128.89,78.61c.17-1.27.71-1.91,1.57-1.91a2.24,2.24,0,0,1,.52,0v1.66a3,3,0,0,0-.52,0c-.79,0-1.27.23-1.27,1.56v3.61h-1.84V76.85h1.49v1.76Z"/><path class="cls-14" d="M136.55,81.33c0,.42.14.62.42.62h.15v1.4a2.41,2.41,0,0,1-1,.19c-.7,0-1-.26-1.18-.76a2.07,2.07,0,0,1-3.76-1.11c0-1.39,1-2.12,2.64-2.12a4.76,4.76,0,0,1,.87.08v-.4c0-.81-.28-1.18-.78-1.18s-.79.34-.9,1.09l-1.57-.32a2.46,2.46,0,0,1,2.6-2.07,2.24,2.24,0,0,1,2.49,2.39Zm-1.84-.42a3,3,0,0,0-.77-.1c-.56,0-.91.3-.91.8a.68.68,0,0,0,.74.69C134.39,82.3,134.71,81.88,134.71,80.91Z"/><path class="cls-14" d="M143.1,81.61a2.6,2.6,0,0,1-2.76,2c-1.79,0-2.79-1.2-2.79-3.35s1.08-3.56,2.84-3.56A2.49,2.49,0,0,1,143.05,79l-1.68.46c-.14-1-.5-1.42-1-1.42s-1,.45-1,2.1.41,2.13,1,2.13c.39,0,.78-.28.93-1.22Z"/><path class="cls-14" d="M145.85,81.69c0,.36.11.55.43.55a.62.62,0,0,0,.18,0v1.31a2.78,2.78,0,0,1-.82.12A1.42,1.42,0,0,1,144,82V74.16h1.83Z"/><path class="cls-14" d="M152.28,80.78h-3.64c.1,1.11.51,1.52,1.06,1.52s.68-.3.81-.87l1.6.53a2.32,2.32,0,0,1-2.43,1.69c-1.85,0-2.9-1.2-2.9-3.35,0-2.39,1.18-3.56,2.75-3.56,2,0,2.75,1.35,2.75,3Zm-1.71-1.34c0-.91-.42-1.37-.94-1.37s-.86.31-1,1.37Z"/><path class="cls-14" d="M162.33,80.6c-.46,2.08-1.49,3.05-3.22,3.05-2.39,0-3.63-1.58-3.63-4.69,0-2.89,1.36-4.69,3.54-4.69a3.07,3.07,0,0,1,3.19,2.9l-2,.49c-.11-1.29-.52-1.86-1.3-1.86s-1.38,1.1-1.38,3.08.56,3.25,1.44,3.25,1.12-.52,1.29-1.81Z"/><path class="cls-14" d="M168.93,80.1c0,2.49-1.3,3.55-3,3.55s-3-1-3-3.36c0-2.5,1.31-3.55,3-3.55S168.93,77.78,168.93,80.1Zm-1.88.07c0-1.09-.33-2-1.12-2s-1.12.62-1.12,2c0,1.08.32,2,1.12,2S167.05,81.55,167.05,80.17Z"/><path class="cls-14" d="M171.63,77.75a1.87,1.87,0,0,1,1.77-1A1.6,1.6,0,0,1,175.06,78a1.94,1.94,0,0,1,2-1.25c1.11,0,2,.71,2,2.27v4.52h-1.83v-4.1c0-.9-.27-1.22-.85-1.22s-1,.35-1,1.22v4.1h-1.83v-4.1c0-.9-.26-1.22-.85-1.22s-.94.35-.94,1.22v4.1H169.9V76.85h1.71v.9Z"/><path class="cls-14" d="M182,77.68a1.86,1.86,0,0,1,1.65-.94c1.6,0,2.48,1.23,2.48,3.48,0,2-1.08,3.43-2.59,3.43a1.77,1.77,0,0,1-1.58-.89h0a7.83,7.83,0,0,1,.16,1.77v1.7h-1.83V76.85h1.83v0a3.66,3.66,0,0,1-.11.79Zm2.26,2.54c0-1.32-.45-2-1.15-2s-1.06.71-1.06,2,.35,2,1.12,2S184.28,81.52,184.28,80.22Z"/><path class="cls-14" d="M189,81.69c0,.36.1.55.43.55a.65.65,0,0,0,.18,0v1.31a2.84,2.84,0,0,1-.82.12A1.43,1.43,0,0,1,187.11,82V74.16H189Z"/><path class="cls-14" d="M195.37,80.78h-3.64c.11,1.11.52,1.52,1.07,1.52s.68-.3.81-.87l1.6.53a2.33,2.33,0,0,1-2.43,1.69c-1.85,0-2.9-1.2-2.9-3.35,0-2.39,1.18-3.56,2.75-3.56,2,0,2.74,1.35,2.74,3Zm-1.7-1.34c0-.91-.42-1.37-.95-1.37s-.86.31-1,1.37Z"/><path class="cls-14" d="M198.07,77.75a1.88,1.88,0,0,1,1.77-1A1.59,1.59,0,0,1,201.5,78a1.94,1.94,0,0,1,2-1.25c1.11,0,2,.71,2,2.27v4.52h-1.83v-4.1c0-.9-.27-1.22-.85-1.22s-1,.35-1,1.22v4.1H200v-4.1c0-.9-.26-1.22-.85-1.22s-.94.35-.94,1.22v4.1h-1.83V76.85h1.71v.9Z"/><path class="cls-14" d="M211.88,80.78h-3.64c.11,1.11.52,1.52,1.06,1.52s.68-.3.81-.87l1.61.53a2.33,2.33,0,0,1-2.44,1.69c-1.85,0-2.89-1.2-2.89-3.35,0-2.39,1.17-3.56,2.74-3.56,2,0,2.75,1.35,2.75,3Zm-1.7-1.34c0-.91-.42-1.37-1-1.37s-.86.31-1,1.37Z"/><path class="cls-14" d="M214.58,77.75a1.86,1.86,0,0,1,1.77-1c1.09,0,1.94.71,1.94,2.27v4.52h-1.83v-4.1c0-.9-.25-1.22-.85-1.22s-.93.35-.93,1.22v4.1h-1.83V76.85h1.71v.9Z"/><path class="cls-14" d="M221.71,81.28c0,.65.28.87.89.87a1.5,1.5,0,0,0,.52-.1v1.41a3.84,3.84,0,0,1-1.21.19,1.84,1.84,0,0,1-2-2.05V78.26h-.88V76.85h.88V76l1.78-1.11v2H223v1.41h-1.32Z"/><path class="cls-14" d="M229,81.33c0,.42.14.62.42.62h.15v1.4a2.35,2.35,0,0,1-1,.19c-.7,0-1-.26-1.17-.76a2.08,2.08,0,0,1-3.77-1.11c0-1.39,1-2.12,2.65-2.12a4.58,4.58,0,0,1,.86.08v-.4c0-.81-.28-1.18-.77-1.18s-.79.34-.91,1.09l-1.56-.32a2.45,2.45,0,0,1,2.6-2.07A2.24,2.24,0,0,1,229,79.13Zm-1.84-.42a2.86,2.86,0,0,0-.76-.1c-.56,0-.92.3-.92.8a.68.68,0,0,0,.74.69C226.8,82.3,227.11,81.88,227.11,80.91Z"/><path class="cls-14" d="M231.82,78.61c.17-1.27.71-1.91,1.57-1.91a2.21,2.21,0,0,1,.51,0v1.66a2.94,2.94,0,0,0-.51,0c-.8,0-1.27.23-1.27,1.56v3.61h-1.84V76.85h1.48v1.76Z"/><path class="cls-14" d="M240.07,76.85l-2.3,7.5c-.37,1.21-.88,2-2.12,2a1.93,1.93,0,0,1-1.6-.7l1-1.09c.17.29.31.4.51.4s.44-.26.62-.81l.19-.61H236l-2-6.68h1.88l.84,2.94a12.3,12.3,0,0,1,.39,2.15h.06a18.49,18.49,0,0,1,.43-2.13l.83-3Z"/><path class="cls-14" d="M249.31,76.09h-2.26v7.44h-1.94V76.09h-2.26v-1.7h6.46Z"/><path class="cls-14" d="M251.72,77.71a1.86,1.86,0,0,1,1.74-1c1.09,0,1.95.71,1.95,2.27v4.52h-1.84v-4.1c0-.9-.25-1.22-.85-1.22s-.93.35-.93,1.22v4.1H250V74.16h1.83v1.66a11.5,11.5,0,0,1-.13,1.89Z"/><path class="cls-14" d="M261.86,80.78h-3.63c.1,1.11.51,1.52,1.06,1.52s.68-.3.81-.87l1.6.53a2.32,2.32,0,0,1-2.43,1.69c-1.85,0-2.9-1.2-2.9-3.35,0-2.39,1.18-3.56,2.75-3.56,2,0,2.74,1.35,2.74,3Zm-1.7-1.34c0-.91-.42-1.37-.94-1.37s-.87.31-1,1.37Z"/><path class="cls-14" d="M264.37,78.61c.18-1.27.71-1.91,1.57-1.91a2.24,2.24,0,0,1,.52,0v1.66a3,3,0,0,0-.52,0c-.79,0-1.27.23-1.27,1.56v3.61h-1.84V76.85h1.49v1.76Z"/><path class="cls-14" d="M272,81.33c0,.42.14.62.42.62h.15v1.4a2.41,2.41,0,0,1-1,.19c-.7,0-1-.26-1.17-.76a2.08,2.08,0,0,1-3.77-1.11c0-1.39,1-2.12,2.65-2.12a4.66,4.66,0,0,1,.86.08v-.4c0-.81-.28-1.18-.78-1.18s-.78.34-.9,1.09L267,78.81a2.44,2.44,0,0,1,2.59-2.07A2.24,2.24,0,0,1,272,79.13Zm-1.84-.42a3,3,0,0,0-.77-.1c-.56,0-.91.3-.91.8a.68.68,0,0,0,.74.69C269.87,82.3,270.19,81.88,270.19,80.91Z"/><path class="cls-14" d="M275.11,77.68a1.84,1.84,0,0,1,1.64-.94c1.61,0,2.48,1.23,2.48,3.48,0,2-1.08,3.43-2.58,3.43a1.79,1.79,0,0,1-1.59-.89h0a7.28,7.28,0,0,1,.16,1.77v1.7h-1.83V76.85h1.83v0a3.13,3.13,0,0,1-.11.79Zm2.26,2.54c0-1.32-.45-2-1.15-2s-1.07.71-1.07,2,.35,2,1.12,2S277.37,81.52,277.37,80.22Z"/><path class="cls-14" d="M285.51,76.85l-2.31,7.5c-.36,1.21-.88,2-2.12,2a1.89,1.89,0,0,1-1.59-.7l1-1.09c.17.29.31.4.52.4s.44-.26.61-.81l.19-.61h-.39l-2-6.68h1.88l.84,2.94a11.43,11.43,0,0,1,.39,2.15h.07a18.49,18.49,0,0,1,.43-2.13l.83-3Z"/><path class="cls-14" d="M295.35,80.6c-.47,2.08-1.5,3.05-3.22,3.05-2.39,0-3.63-1.58-3.63-4.69,0-2.89,1.36-4.69,3.53-4.69a3.08,3.08,0,0,1,3.2,2.9l-2,.49c-.11-1.29-.52-1.86-1.31-1.86s-1.37,1.1-1.37,3.08.56,3.25,1.44,3.25,1.12-.52,1.29-1.81Z"/><path class="cls-14" d="M301.43,80.78h-3.64c.11,1.11.52,1.52,1.07,1.52s.68-.3.8-.87l1.61.53a2.33,2.33,0,0,1-2.43,1.69c-1.86,0-2.9-1.2-2.9-3.35,0-2.39,1.17-3.56,2.74-3.56,2,0,2.75,1.35,2.75,3Zm-1.7-1.34c0-.91-.42-1.37-1-1.37s-.86.31-1,1.37Z"/><path class="cls-14" d="M304.13,77.75a1.87,1.87,0,0,1,1.77-1c1.1,0,2,.71,2,2.27v4.52H306v-4.1c0-.9-.26-1.22-.85-1.22s-.94.35-.94,1.22v4.1H302.4V76.85h1.71v.9Z"/><path class="cls-14" d="M311.26,81.28c0,.65.28.87.89.87a1.45,1.45,0,0,0,.52-.1v1.41a3.79,3.79,0,0,1-1.21.19,1.84,1.84,0,0,1-2-2.05V78.26h-.88V76.85h.88V76l1.78-1.11v2h1.32v1.41h-1.32Z"/><path class="cls-14" d="M318.59,80.78H315c.11,1.11.52,1.52,1.07,1.52s.68-.3.81-.87l1.6.53A2.33,2.33,0,0,1,316,83.65c-1.86,0-2.9-1.2-2.9-3.35,0-2.39,1.17-3.56,2.75-3.56,2,0,2.74,1.35,2.74,3Zm-1.7-1.34c0-.91-.42-1.37-.95-1.37s-.86.31-1,1.37Z"/><path class="cls-14" d="M321.1,78.61c.17-1.27.71-1.91,1.57-1.91a2.29,2.29,0,0,1,.52,0v1.66a3.05,3.05,0,0,0-.52,0c-.8,0-1.27.23-1.27,1.56v3.61h-1.84V76.85h1.49v1.76Z"/></svg>