<svg id="Layer_1" data-name="Layer 1" xmlns="http://www.w3.org/2000/svg" xmlns:xlink="http://www.w3.org/1999/xlink" viewBox="0 0 327.89999 104.6"><defs><style>.cls-1{fill:url(#linear-gradient);}.cls-2{fill:url(#linear-gradient-2);}.cls-3{fill:url(#linear-gradient-3);}.cls-4{fill:url(#linear-gradient-4);}.cls-5{fill:url(#linear-gradient-5);}.cls-6{fill:url(#linear-gradient-6);}.cls-23,.cls-7{fill:#fff;}.cls-10,.cls-12,.cls-13,.cls-15,.cls-17,.cls-18,.cls-20,.cls-21,.cls-7,.cls-8{fill-rule:evenodd;}.cls-8{fill:url(#linear-gradient-7);}.cls-9{mask:url(#mask);}.cls-10{fill:#19b5fe;}.cls-11{mask:url(#mask-2);}.cls-12{fill:#102770;}.cls-13{fill:url(#未命名漸層_11);}.cls-14{mask:url(#mask-3);}.cls-15{fill:#92278f;}.cls-16{mask:url(#mask-4);}.cls-17{fill:#662d91;}.cls-18{fill:url(#linear-gradient-8);}.cls-19{mask:url(#mask-5);}.cls-20{fill:#39d5ff;}.cls-21{fill:url(#未命名漸層_11-2);}.cls-22{mask:url(#mask-6);}</style><linearGradient id="linear-gradient" x1="40814.97645" y1="-20646.87663" x2="41370.98521" y2="-21041.8859" gradientTransform="matrix(0.072, 0, 0, -0.072, -2940.78931, -1445.95542)" gradientUnits="userSpaceOnUse"><stop offset="0" stop-color="#fff"/><stop offset="1" stop-color="#fff" stop-opacity="0"/></linearGradient><linearGradient id="linear-gradient-2" x1="40540.91815" y1="-20407.72886" x2="41839.0659" y2="-21264.5483" xlink:href="#linear-gradient"/><linearGradient id="linear-gradient-3" x1="41095.89474" y1="-20283.5103" x2="41581.61269" y2="-20851.77701" xlink:href="#linear-gradient"/><linearGradient id="linear-gradient-4" x1="40844.98688" y1="-20492.42772" x2="41922.62328" y2="-21084.96377" xlink:href="#linear-gradient"/><linearGradient id="linear-gradient-5" x1="40944.57639" y1="-20601.02734" x2="41934.64836" y2="-21035.11723" xlink:href="#linear-gradient"/><linearGradient id="linear-gradient-6" x1="40957.97452" y1="-20451.25296" x2="41781.10657" y2="-21008.06302" xlink:href="#linear-gradient"/><linearGradient id="linear-gradient-7" x1="41543.08271" y1="-21288.69083" x2="40764.55892" y2="-20600.75853" gradientTransform="matrix(0.072, 0, 0, -0.072, -2940.78931, -1445.95542)" gradientUnits="userSpaceOnUse"><stop offset="0" stop-color="#004790"/><stop offset="1" stop-color="#19b5fe"/></linearGradient><mask id="mask" x="4.64851" y="40.76845" width="19.36323" height="23.06328" maskUnits="userSpaceOnUse"><g id="id0"><rect class="cls-1" x="4.64851" y="40.76845" width="19.36323" height="23.06328"/></g></mask><mask id="mask-2" x="7.70458" y="40.76845" width="42.94461" height="32.61502" maskUnits="userSpaceOnUse"><g id="id2"><rect class="cls-2" x="7.70458" y="40.76845" width="42.94461" height="32.61502"/></g></mask><linearGradient id="未命名漸層_11" x1="41848.72591" y1="-20926.03155" x2="41150.62732" y2="-20370.89401" gradientTransform="matrix(0.072, 0, 0, -0.072, -2940.78931, -1445.95542)" gradientUnits="userSpaceOnUse"><stop offset="0" stop-color="#662d91"/><stop offset="1" stop-color="#92278f"/></linearGradient><mask id="mask-3" x="17.92949" y="17.83123" width="32.71953" height="31.09814" maskUnits="userSpaceOnUse"><g id="id4"><rect class="cls-3" x="17.92949" y="17.83123" width="32.71953" height="31.09814"/></g></mask><mask id="mask-4" x="20.58669" y="40.76845" width="37.08332" height="20.43642" maskUnits="userSpaceOnUse"><g id="id6"><rect class="cls-4" x="20.58669" y="40.76845" width="37.08332" height="20.43642"/></g></mask><linearGradient id="linear-gradient-8" x1="42356.29549" y1="-21556.21396" x2="41002.16806" y2="-20535.55746" xlink:href="#linear-gradient-7"/><mask id="mask-5" x="7.58051" y="29.90374" width="62.11974" height="42.38152" maskUnits="userSpaceOnUse"><g id="id8"><rect class="cls-5" x="7.58051" y="29.90374" width="62.11974" height="42.38152"/></g></mask><linearGradient id="未命名漸層_11-2" x1="42249.22723" y1="-21328.56982" x2="41084.78336" y2="-20567.42348" xlink:href="#未命名漸層_11"/><mask id="mask-6" x="16.78449" y="31.20983" width="42.38101" height="30.95318" maskUnits="userSpaceOnUse"><g id="id10"><rect class="cls-6" x="16.78449" y="31.20983" width="42.38101" height="30.95318"/></g></mask></defs><g id="Layer_1-2" data-name="Layer_1"><g id="_2327149943952" data-name=" 2327149943952"><path class="cls-7" d="M49.12341,45.17326a2.14627,2.14627,0,0,0-1.22736-2.67676,2.1463,2.1463,0,0,0,2.60042-1.38193,2.14568,2.14568,0,0,0,1.22718,2.67676A2.14608,2.14608,0,0,0,49.12341,45.17326Z"/><path class="cls-7" d="M46.63585,52.15906a2.14642,2.14642,0,0,0-2.277-1.86735,2.14586,2.14586,0,0,0,1.73093-2.38218,2.146,2.146,0,0,0,2.27661,1.86754,2.14552,2.14552,0,0,0-1.73077,2.382Z"/><path class="cls-7" d="M43.09689,46.61215A4.38269,4.38269,0,0,0,38.172,43.16152a4.38264,4.38264,0,0,0,3.1566-5.11846,4.38188,4.38188,0,0,0,4.92489,3.45047A4.38253,4.38253,0,0,0,43.09689,46.612Z"/><path class="cls-8" d="M10.97146,40.8314H6.122a1.41353,1.41353,0,0,0-1.41057,1.41076V62.358A1.4134,1.4134,0,0,0,6.122,63.76863H26.23809a1.41337,1.41337,0,0,1,1.41057,1.41057V85.29525a1.41353,1.41353,0,0,0,1.4106,1.41058H49.17512a1.41339,1.41339,0,0,0,1.41058-1.41058V67.94558a97.88628,97.88628,0,0,1-18.39236-8.53241C20.56656,52.62634,14.3713,47.0847,11.16448,41.2013q-.10122-.18587-.19319-.37025Z"/><g class="cls-9"><path class="cls-10" d="M10.97146,40.8314H6.122a1.41353,1.41353,0,0,0-1.41057,1.41076V62.358A1.4134,1.4134,0,0,0,6.122,63.76863H22.90445q-.07263-.97957-.07363-1.97785a26.35062,26.35062,0,0,1,1.11779-7.61089c-6.49565-4.557-10.439-8.67648-12.784-12.97843q-.10119-.18586-.19319-.37025Z"/></g><g class="cls-11"><path class="cls-12" d="M10.97146,40.8314H7.76752A24.56253,24.56253,0,0,0,11.431,47.61c4.887,6.61883,12.41605,12.28709,19.42291,16.46843a95.36184,95.36184,0,0,0,19.73221,9.24188V69.5519c-1.978-.70293-3.92175-1.52052-5.78347-2.37511A106.54605,106.54605,0,0,1,31.7059,59.92688a88.93644,88.93644,0,0,1-13.101-9.88641,32.26632,32.26632,0,0,1-7.44022-8.8392q-.10123-.18582-.19319-.37022Z"/></g><path class="cls-13" d="M49.17548,17.89417H29.05961a1.4134,1.4134,0,0,0-1.41057,1.4106V39.42064a1.4134,1.4134,0,0,1-1.4106,1.41057H17.99282c3.39658,4.29706,9.27145,9.36092,15.7925,13.38821C46.03,61.78207,57.42039,65.447,59.75685,62.185c3.61588-5.049-15.0241-17.945-15.329-18.14746.67592.37259,15.38346,6.78334,20.9458,14.65855a12.28349,12.28349,0,0,1,2.30107,5.07238h4.43856a1.41338,1.41338,0,0,0,1.41057-1.41058V42.242a1.41355,1.41355,0,0,0-1.41057-1.41076H51.99738a1.41353,1.41353,0,0,1-1.41076-1.41057V19.30477a1.41342,1.41342,0,0,0-1.4106-1.4106Zm-.05207,27.27909a2.14627,2.14627,0,0,0-1.22736-2.67676,2.14628,2.14628,0,0,0,2.6004-1.38193,2.14571,2.14571,0,0,0,1.2272,2.67676A2.14606,2.14606,0,0,0,49.12341,45.17326ZM46.636,52.15906a2.14646,2.14646,0,0,0-2.277-1.86735A2.14589,2.14589,0,0,0,46.09,47.90953a2.146,2.146,0,0,0,2.27658,1.86754,2.1455,2.1455,0,0,0-1.73074,2.382ZM43.09687,46.612A4.38273,4.38273,0,0,0,38.172,43.16133a4.3826,4.3826,0,0,0,3.15658-5.11843,4.3819,4.3819,0,0,0,4.92488,3.45044,4.38258,4.38258,0,0,0-3.15657,5.11845Z"/><g class="cls-14"><path class="cls-15" d="M49.17548,17.89417H29.05961a1.4134,1.4134,0,0,0-1.41057,1.4106V39.42064a1.4134,1.4134,0,0,1-1.4106,1.41057H17.99282a53.25106,53.25106,0,0,0,8.22223,8.03486A26.34134,26.34134,0,0,1,49.18239,35.43959q.70664,0,1.40385.03754V19.30477a1.4134,1.4134,0,0,0-1.41057-1.4106Z"/></g><g class="cls-16"><path class="cls-17" d="M22.81613,40.8314h-2.1665C29.2978,50.96306,52.90784,63.67247,56.98937,60.7031c2.50808-1.82527-2.81118-8.83828-12.5621-16.66543C45.93708,45.33688,58.85276,57.45273,54.592,58.87728c-3.67954,1.23009-19.20122-7.81844-21.27881-9.2437a62.81569,62.81569,0,0,1-10.497-8.80237Z"/></g><path class="cls-18" d="M63.26972,56.19071c10.42716,10.2692,7.48048,17.154-4.70648,15.88-6.43724-.67282-15.45275-3.62223-26.43666-9.55155C23.0329,57.61037,16.28419,52.11679,12.20064,47.05786c-7.0852-8.77806-6.14626-16.24893,4.49371-17.09117-5.24237.53512-8.72273,5.37712-5.5297,11.23512a26.22663,26.22663,0,0,0,2.40323,3.63077c3.60773,4.60509,9.41078,9.202,18.626,14.58094,9.48153,5.53457,18.24617,8.99662,24.61338,10.15234a21.05456,21.05456,0,0,0,2.61854.31473c7.40847.39873,11.04957-3.96,5.94782-11.18417a21.2299,21.2299,0,0,0-2.10371-2.50571ZM16.5249,31.31777a3.07382,3.07382,0,0,1,3.92284-1.54919,3.0743,3.0743,0,0,1-1.31754-4.00681,3.07342,3.07342,0,0,1-3.92246,1.54955,3.07348,3.07348,0,0,1,1.31716,4.00661Z"/><g class="cls-19"><path class="cls-20" d="M63.26972,56.1909c10.42716,10.269,7.48048,17.15395-4.70648,15.87977-6.437-.67282-15.45258-3.62223-26.43647-9.55155C23.03307,57.61037,16.28419,52.117,12.20064,47.05786c-7.0852-8.77825-6.14607-16.24893,4.49387-17.09117a9.02116,9.02116,0,0,0-1.19617.20315c-3.72763.76715-5.89845,2.56721-6.45718,5.09032C7.037,44.314,24.18209,56.13829,30.88962,60.16a90.01806,90.01806,0,0,0,19.24221,8.85607c5.84951,1.78427,20.503,4.50257,17.98-5.88251-.48434-1.99379-2.203-4.14125-4.44055-6.51924q-.19728-.21279-.40145-.42359Z"/></g><path class="cls-21" d="M17.41341,40.07387A20.874,20.874,0,0,1,16.22288,38.286c-2.65829-4.51946,2.704-8.79076,7.28854-6.65185-4.83743-.8573-7.021,2.68946-4.8349,6.49674,6.13791,10.37692,33.858,25.81316,38.31305,22.57206,2.50807-1.82491-2.81138-8.83811-12.56211-16.66523.30494.2026,18.94511,13.09867,15.329,18.14765-2.33611,3.26179-13.72653-.40309-25.97134-7.96574-6.90836-4.2664-13.09181-9.69687-16.37156-14.14593Z"/><g class="cls-22"><path class="cls-15" d="M56.98957,60.7031c2.50807-1.82492-2.81138-8.83809-12.56211-16.66524.03392.0225.2955.20263.72834.51173Q58.44832,55.00027,59.07116,59.50946c.591,4.27766-7.34806,2.12768-9.2996,1.43381A91.7422,91.7422,0,0,1,28.64619,49.57208c-2.77544-2.00214-8.06168-6.305-10.50245-10.29a7.84843,7.84843,0,0,1-1.28632-3.46769c-.1863-3.00709,2.25572-5.49811,6.654-4.18-4.83746-.85731-7.021,2.68948-4.8349,6.49673q.101.17089.20986.34376c6.53412,10.37,33.69691,25.43387,38.103,22.22831Z"/></g></g></g><path class="cls-23" d="M101.33994,48.76819h1.91239l4.402-.09271.21252.21624-.09112,3.39789v3.89225l.09112,3.95389-.21252.21624-4.402-.09271h-1.91239v3.92307h3.67336l5.03932-.09271.21252.21624v3.583l-.21252.21624-5.03932-.09271H86.70705l-5.03959.09271-.21252-.21624v-3.583l.21252-.21624,5.03959.09271h3.49113V60.25928H88.55887l-4.402.09271-.21252-.21624.09112-3.95389V52.28961l-.09112-3.39789.21252-.21624,4.402.09271h1.63931V45.24678h-2.8233l-5.03958.09271-.21252-.21624V41.66373l.21252-.21623,5.03958.09244h17.092l5.03932-.09244.21251.21623v3.45952l-.21251.21624-5.03932-.09271h-3.12693Zm-6.922-3.52141v3.02731l.09111,3.76846-.182.21624-4.129-.09271H88.13383v4.63341h2.0949l4.0984-.09244.182.09244L94.418,60.16657v4.01578H97.0593V60.16657L96.96819,56.923l.21251-.216,4.0984.09244h2.216V52.16608h-2.216l-4.0984.09271-.21251-.21624.09111-3.76846V45.24678Z"/><path class="cls-23" d="M115.48616,54.08139l-.3642.09245A21.87273,21.87273,0,0,0,111.57,51.363l-.09112-.24705,2.27686-2.74918.36447-.09271a22.86147,22.86147,0,0,1,3.70365,2.40942l.09111.30868ZM111.6914,66.68421a44.32329,44.32329,0,0,0,3.6128-9.76119l2.94469,2.13155c.30363.21624.27309.43247.21252.74142a67.39379,67.39379,0,0,1-3.09665,9.0814l-.30363.15461-3.3089-2.10047Zm4.79678-20.38707-.36446.06163a19.83974,19.83974,0,0,0-3.64282-2.93433l-.06083-.24732,2.39826-2.62565.36446-.06163a29.68656,29.68656,0,0,1,3.82505,2.59457l.06084.309Zm16.05942,12.016.15195,8.989h-4.28064l.15195-8.989V55.47126l-1.73042.95766-.27335-.0619a30.10621,30.10621,0,0,0-.78924-6.05436v4.75721c0,7.9694-1.88237,11.05834-5.3735,13.8386a.74571.74571,0,0,1-.45532.21624.67775.67775,0,0,1-.45558-.24732l-2.79275-2.34752c3.64282-2.3786,5.06987-5.12778,5.06987-11.33648v-14.024l.21252-.21623h3.61253l.18223.24705v7.69154l1.609-.83387.2428.09271a38.84012,38.84012,0,0,1,.94118,4.13905v-10.657l.21252-.21624h3.58225l.182.24732V49.139l1.66985-.83413.24281.09271c.33391,1.26634.63755,2.71837.85007,4.0466V41.015l.21251-.21623h3.67337l.18223.24705V56.9541l.15169,12.17061h-4.37149l.15169-12.109V55.44044l-1.76071,1.112-.27335-.06163a45.64211,45.64211,0,0,0-.72867-5.62215Zm-13.57-10.16259,2.39826.74116.15168.24731a39.1376,39.1376,0,0,1-1.184,7.69154l-.30337.12353-2.55021-.95766-.15195-.24705a28.34731,28.34731,0,0,0,1.3965-7.50638Z"/><path class="cls-23" d="M157.775,46.328a63.57714,63.57714,0,0,1,11.32373,2.96542l.06056.30894-2.09462,2.50213,3.8556-.0619.21251.21624v3.39789l-.21251.21624-3.79477-.0619V59.1162l.15169,5.96191c0,2.99623-1.48763,4.26284-5.98051,4.26284-.60727,0-.63755-.0619-.7895-.37085L158.959,65.41787l.06056,1.69882h-4.37148v-1.421h-4.31092v1.8845h-4.2198l.15169-4.32473v-2.78l-.09112-3.18165.18223-.21623,4.55372.09271h3.30916l4.52344-.09271.21252.21623-.09112,3.18165v2.16237l.09112,2.34752a28.42527,28.42527,0,0,0,2.94469-.12352c.63755-.0619.81979-.24706.81979-.98848V55.78021H147.27108l-5.03959.09271-.21252-.21624V52.25879l.21252-.21624,3.00553.0619-1.63931-2.9346c5.22156-.46329,8.07513-1.42095,9.47164-3.30518h-3.52142l-5.03958.09271-.21252-.21623V42.436l.21252-.21624,5.03958.09245h4.584a4.87417,4.87417,0,0,0,.03028-.67953V39.99547l.21252-.21624H158.382l.21252.21624v2.31671h4.979l5.03932-.09245.21252.21624v3.30518l-.21252.21623-5.03932-.09271h-5.61631Zm7.25561,5.80731a54.306,54.306,0,0,0-5.343-1.79153c-1.3965-.37084-2.85384-.67979-4.28063-.95765a14.29469,14.29469,0,0,1-7.07364,2.74918Zm-10.38254,8.27835h-4.31092v2.03884h4.31092Z"/><path class="cls-23" d="M181.33285,55.008l2.51966-.0619.18223.15461v3.30518l-.18223.15434-2.51966-.06163v4.01552c.91063-.24705,1.82154-.49411,2.73217-.77224v3.21274c0,.37057-.182.4941-.51615.58681-2.79274.89576-6.04134,1.8226-9.7147,2.78l-.27309-.09271-1.30539-3.55223.21252-.27786c.33392-.0619.66784-.09271,1.00176-.15461V54.42116l.21251-.24732h2.88413l.21252.21624v9.23627c.30337-.06189.57672-.12379.88035-.21624V51.54845h-.78924l-3.00552.09245-.21252-.24705.15168-3.08895v-4.448l-.09111-2.74944.21251-.216,2.97525.09244h3.49113l2.97524-.09244.21252.216-.09111,2.74944v4.5407l.03028.77224,4.03783.09271h2.73218V48.3668h-.85007l-3.825.09244-.21252-.18515V45.9882l.182-.18542,3.8556.09271h.85007v-.89576h-1.63931l-3.977.09271-.21251-.18543V42.37407l.18223-.18542,4.00728.09271h1.63931V40.33523l.21252-.24705h3.73393l.24307.21624v1.97694h2.24631l4.15923-.09271.18223.15461v2.59457l-.18223.15461-4.15923-.09271h-2.24631v.89576H195.753l3.8556-.09271.18224.1546V48.3049l-.18224.15434-3.8556-.09244h-1.27483v.89576h3.15721l3.8556-.09271.182.15434v2.68755l-.182.15434-3.8556-.09271H187.55642l-3.977.09271-.21252-.18516v-.37084l-.03054.03082-2.00351-.06163Zm-1.42679-6.765V44.2583h-2.51993V48.243Zm12.05213,18.10144v.33976a30.70659,30.70659,0,0,1-7.43785,2.62566,2.32336,2.32336,0,0,1-.425.06189.64143.64143,0,0,1-.54644-.30895l-1.791-2.471a27.74857,27.74857,0,0,0,6.55749-1.8845l-2.793.06189-.21251-.21623.09111-4.32447V56.367l-.09111-3.36681.21251-.18542,4.0984.09271h6.04134l3.88589-.09271.2428.247-.09112,3.45979v3.55223l.09112,4.47907-.27335.21623-3.76449-.09271a40.0074,40.0074,0,0,1,6.01106,1.69908l.06083.30868-2.00377,2.47132-.3642.09271a36.29348,36.29348,0,0,0-6.52721-2.37861l-.06057-.24705,1.85183-1.94613h-4.85736ZM195.753,55.47126H189.226v.86494H195.753ZM189.226,58.31315v.86494H195.753v-.86494Zm0,3.76847H195.753V61.155H189.226Z"/><path class="cls-23" d="M207.65287,46.51338h-1.54819l-2.94469.09271-.24281-.21623V43.17712l.21252-.18515,2.975.09244h1.54819V40.02655l.21252-.24732h3.30916l.1214.27814v3.027h1.00176l3.03607-.09244.21252.21623v3.18166l-.21252.21623-3.03607-.09271H211.296v1.32824h.577l3.30889-.12353.15195.21624-.03054,3.027v5.18941l.03054,3.30545-.15195.24705-3.52141-.09271H211.296V61.0007h1.24482l3.03582-.09271.21251.21623v3.18166l-.21251.21623-3.03582-.09271H211.3265l.09085,4.78776H207.4709l.09112-4.78776h-1.45734l-3.24833.09271-.2428-.21623V61.09314l.21252-.18515,3.27861.09271h1.48762V59.61057h-.2428l-3.552.09271-.18224-.21624.15169-3.33626V50.96137l-.09085-3.027.2428-.21624,3.24833.12353h.4856Zm.27335,4.10823h-1.1537V52.3515h1.1537Zm-1.1537,4.35555v1.85341h1.1537V54.97716Zm5.3735-2.62566V50.62161h-1.12315V52.3515Zm-1.12315,4.47907H212.146V54.97716h-1.12315Zm14.26842,12.29414h-3.64308l.06083-6.61062h-1.66985v6.88849h-3.73393l.15168-8.95788V51.85713l-.09112-2.99623.18224-.21623,3.00552.09271h2.09463v-1.668H220.0089l-3.79476.09271-.18224-.18542V43.6096l.15169-.18516,3.82531.09244h1.63931v-3.336l.15195-.21624h3.36973l.1214.24706v3.30517h2.39826a14.27685,14.27685,0,0,0-1.79126-1.82233l.06084-.27814,2.00377-1.54447.30337.0619a17.76668,17.76668,0,0,1,2.64133,2.34752v.309l-1.24482.89576,2.03405-.06163.15195.15434v3.4287l-.15195.15461-3.67336-.09271h-2.73218v1.668h2.45909l2.975-.09271.21252.21623-.09112,2.99623v7.5372l.1214,5.93083c0,3.15084-.63728,3.892-3.97673,3.892-.45558,0-.51615-.06163-.60727-.37058l-1.09287-3.30518a7.72421,7.72421,0,0,0,1.33567-.09271c.36447-.06163.54644-.18542.54644-.64871V62.51409h-1.94294Zm-3.552-17.05134h-1.70014v2.008h1.70014Zm0,5.1586h-1.70014v2.13155h1.70014Zm5.43407-3.15058v-2.008h-1.97323v2.008Zm0,5.28213V57.232h-1.97323v2.13155Z"/><path class="cls-23" d="M248.4541,62.48327l-4.18951.0619-.21252-.18542.09112-3.08894V58.0661q-.63756.50964-1.27511.92657a.83266.83266,0,0,1-.3642.15461c-.15169,0-.2428-.09271-.425-.27813l-.94118-1.0501a19.89855,19.89855,0,0,1-4.2198,11.27458c-.1214.12353-.21252.18542-.30337.18542a.26.26,0,0,1-.18224-.09271L233.457,66.37553a15.59949,15.59949,0,0,0,3.76448-9.69956,21.56873,21.56873,0,0,1-3.00553,1.63718l-.33392-.12353-.94092-3.95388.21226-.21624a31.68473,31.68473,0,0,0,4.15923-1.35905V49.4788l-2.61078,1.54447-.30363-.0619a25.7226,25.7226,0,0,0-1.48763-4.88046l.15195-.27813,2.5805-1.51366.30337.03108A17.1321,17.1321,0,0,1,237.31261,47.44v-.06163l-.09112-4.72613.21252-.21623,5.03959.09244h5.03932V40.02655l.21251-.21624h4.06812l.21252.21624v2.50186h4.79678l5.03932-.09244.21252.21623v3.21247l-.21252.21624-5.03932-.09271h-5.85937l1.54846.40166.06056.27786c-.09111.30895-.21251.6179-.30363.89576h5.3735l3.79477-.09271.21252.21624v2.78026l-.21252.21624-2.15546-.0619,2.30741,1.60637.03028.21623a23.00031,23.00031,0,0,1-2.12517,1.82234,22.90116,22.90116,0,0,0,3.00553,1.66826L260.47622,58.684c-.12167.18516-.21252.24705-.33392.24705a.83613.83613,0,0,1-.39475-.18542c-.45532-.309-.88036-.61789-1.30539-.95766v1.48285l.09112,3.08894-.21252.18542-4.18952-.0619h-.85007v.71061l.1214,2.74918c0,2.56376-1.1537,3.45952-4.736,3.45952-.57672,0-.63755-.06163-.75895-.33977l-1.184-2.71836a21.35581,21.35581,0,0,1-4.0984,2.53294,1.02984,1.02984,0,0,1-.39449.09271c-.18223,0-.30363-.09271-.48586-.30894l-1.97323-2.44024a15.97389,15.97389,0,0,0,5.70742-3.61412h.30337l2.67161,1.8226v.30895a15.49379,15.49379,0,0,1-1.609,1.48257c.75895,0,1.24482-.03081,1.761-.06163.57672-.03108.759-.24731.759-.92684V62.48327Zm-6.61806-12.016V47.65619l.21252-.18542,3.4.09271h2.7019c.18223-.52518.33418-1.0501.48587-1.57528h-7.377v8.61811c0,.40166,0,.80332-.03055,1.1739a24.36389,24.36389,0,0,0,2.15546-1.48258,15.90174,15.90174,0,0,0-1.791-1.54447V52.475l2.03379-1.82261-1.54819.03109Zm2.15546.15434a12.89159,12.89159,0,0,1,1.70014,1.45176,13.01542,13.01542,0,0,0,1.06232-1.48258h-1.30539Zm10.74675,5.99273V55.59478h-7.01282v1.01956Zm-7.01282,3.30518h7.01282V58.86915h-7.01282Zm6.01106-6.85768a16.34339,16.34339,0,0,1-1.609-2.471h-1.27511a19.2318,19.2318,0,0,1-1.6393,2.471Zm5.64659,15.72284h-.30337a26.87111,26.87111,0,0,0-5.40379-3.64494v-.27786l2.30715-2.224h.30363a32.38491,32.38491,0,0,1,5.46436,3.336v.30895Zm-3.5517-18.19389c.39449.556.81952,1.05011,1.24456,1.54448a13.28235,13.28235,0,0,0,1.42679-1.51366l-.88036-.03082Z"/><path class="cls-23" d="M269.70452,58.6221v1.8226h-4.49315l.15195-7.41367V49.50961l-.09111-3.70683.21251-.21624,4.52344.09271h5.52519V40.08818l.21251-.21624H279.814l.21225.21624v5.59107h5.91994l4.52344-.06163.21251.21624-.06056,3.67575v3.42871l.15168,7.25906h-4.61455V58.6221h-6.13246V60.352l.15195,9.01977H275.3814l.15195-9.01977V58.6221Zm5.82883-9.236h-5.82883v5.52917h5.82883Zm10.62534,5.52917V49.38609h-6.13246v5.52917Z"/><path class="cls-23" d="M300.7002,52.96913l.1214.34A48.26835,48.26835,0,0,1,297.84635,63.688l-.30363.09271-3.64282-1.668-.06083-.30895A36.19828,36.19828,0,0,0,296.8446,51.7955l.27335-.1546Zm5.91994,10.00851c0,.89576.21252,1.112,2.12491,1.112,2.09489,0,2.85384-.09271,3.46085-.58708.54643-.46329.7895-1.35905.97147-3.86118l3.82531,1.57555c.33392.15435.3642.24706.33392.61763-.33392,2.9346-.81979,4.29365-1.66986,5.03507-1.032.92685-2.216,1.32824-6.76974,1.32824-5.85937,0-6.73973-.74142-6.73973-3.336l.06083-6.209V48.552l.21252-.24706h3.94645l.24307.27814Zm1.15344-22.457.30363-.06163a27.40525,27.40525,0,0,1,5.10016,4.448l-.06057.309-3.12693,2.78-.27335-.03082a27.4754,27.4754,0,0,0-4.88764-4.788v-.30868Zm9.2291,8.6492.33392.03081a41.7781,41.7781,0,0,1,5.768,9.29791l-.09112.30895-3.52141,2.25481-.30364-.06163a49.31466,49.31466,0,0,0-5.3735-9.45225l.06083-.309Z"/><path class="cls-23" d="M88.939,83.53127H86.94692l-.48454-2.1443h-2.573l-.47391,2.1443h-1.8412l2.1427-9.13958h3.06849Zm-3.48847-6.67889a12.21577,12.21577,0,0,1-.237-1.25386h-.05393c-.06455.42185-.15062.8437-.24758,1.25386l-.65668,2.89422h1.84093Z"/><path class="cls-23" d="M90.83334,81.24644c.34454.79668.77516,1.13644,1.28121,1.13644.42,0,.63543-.22261.63543-.52731,0-.492-.4524-.67952-1.52906-1.04266-1.1197-.3751-1.63639-.89072-1.63639-1.93338a2.14385,2.14385,0,0,1,2.36851-2.168,2.26574,2.26574,0,0,1,2.43359,1.75779l-1.47514.492c-.15088-.63277-.54909-.99591-1.03363-.99591a.51186.51186,0,0,0-.5815.55068c0,.35145.24758.55069.97971.7733,1.443.43354,2.18574.97253,2.18574,2.203,0,1.34763-.96908,2.17937-2.54091,2.17937a2.53875,2.53875,0,0,1-2.60573-1.81623Z"/><path class="cls-23" d="M97.36852,74.97744a1.07583,1.07583,0,0,1-1.06578,1.16008,1.03344,1.03344,0,0,1-1.03363-1.16008,1.01543,1.01543,0,0,1,1.03363-1.12475A1.039,1.039,0,0,1,97.36852,74.97744Zm-.15063,8.55383H95.38732V76.85238h1.83057Z"/><path class="cls-23" d="M103.60245,81.32826c0,.42185.14.62108.41972.62108a.38179.38179,0,0,0,.15089-.01169v1.40607a2.35722,2.35722,0,0,1-.98.18755c-.69971,0-1.02274-.25768-1.17336-.76161a2.07467,2.07467,0,0,1-3.76847-1.11333c0-1.38242,1.02274-2.12065,2.6485-2.12065a4.78485,4.78485,0,0,1,.86149.08182v-.39821c0-.80863-.28-1.18346-.77515-1.18346-.50606,0-.786.33977-.90453,1.08969l-1.56121-.31639a2.45576,2.45576,0,0,1,2.59484-2.0739,2.24337,2.24337,0,0,1,2.48725,2.39029Zm-1.8412-.42158a2.99379,2.99379,0,0,0-.76453-.09377c-.56,0-.91515.29274-.91515.79667a.67852.67852,0,0,0,.743.69148C101.44885,82.30106,101.76125,81.87921,101.76125,80.90668Z"/><path class="cls-23" d="M106.65952,77.75451a1.86552,1.86552,0,0,1,1.766-1.01928c1.09818,0,1.94878.71459,1.94878,2.27314v4.5229h-1.83057V79.43021c0-.9024-.25821-1.21878-.8506-1.21878-.52758,0-.93667.35171-.93667,1.21878v4.10106h-1.83031V76.85238H106.638v.90213Z"/><path class="cls-23" d="M122.70166,74.39169v9.13958h-1.77638V79.95752c0-1.25385.02152-2.496.11822-3.7496h-.10759l-1.60424,7.32335h-1.58273l-1.63665-7.32335h-.10758c.08607,1.2419.10758,2.47237.10758,3.7496v3.57375h-1.77664V74.39169h2.95027l.80757,3.60881a21.58318,21.58318,0,0,1,.45213,3.11684h.10785a22.11414,22.11414,0,0,1,.4091-3.10515l.78578-3.6205Z"/><path class="cls-23" d="M126.20023,74.97744a1.07583,1.07583,0,0,1-1.06577,1.16008,1.03344,1.03344,0,0,1-1.03363-1.16008,1.01543,1.01543,0,0,1,1.03363-1.12475A1.039,1.039,0,0,1,126.20023,74.97744Zm-.15062,8.55383H124.219V76.85238h1.83057Z"/><path class="cls-23" d="M128.89177,78.6099c.17214-1.26554.7106-1.91,1.57183-1.91a2.55859,2.55859,0,0,1,.51695.047v1.66374a2.57855,2.57855,0,0,0-.51695-.04675c-.79668,0-1.27032.22261-1.27032,1.55828v3.60908h-1.8412V76.85238h1.48576V78.6099Z"/><path class="cls-23" d="M136.54665,81.32826c0,.42185.14.62108.41972.62108a.38179.38179,0,0,0,.15089-.01169v1.40607a2.35808,2.35808,0,0,1-.98.18755c-.69971,0-1.02274-.25768-1.17336-.76161a2.07467,2.07467,0,0,1-3.76846-1.11333c0-1.38242,1.02274-2.12065,2.64849-2.12065a4.785,4.785,0,0,1,.8615.08182v-.39821c0-.80863-.28-1.18346-.77516-1.18346-.50606,0-.78605.33977-.90453,1.08969l-1.5612-.31639a2.45576,2.45576,0,0,1,2.59483-2.0739,2.24337,2.24337,0,0,1,2.48726,2.39029Zm-1.8412-.42158a2.99379,2.99379,0,0,0-.76453-.09377c-.56,0-.91516.29274-.91516.79667a.67852.67852,0,0,0,.743.69148C134.393,82.30106,134.70545,81.87921,134.70545,80.90668Z"/><path class="cls-23" d="M143.10308,81.60958a2.61158,2.61158,0,0,1-2.767,2.03884c-1.78754,0-2.78876-1.19514-2.78876-3.35113,0-2.19133,1.08756-3.56206,2.84242-3.56206a2.48926,2.48926,0,0,1,2.65939,2.29651l-1.67942.45692c-.14-.97254-.49543-1.41776-.98-1.41776-.5382,0-1.01212.44522-1.01212,2.09755,0,1.57.4091,2.13261,1.03364,2.13261.38758,0,.77542-.28132.926-1.21879Z"/><path class="cls-23" d="M145.84827,81.69167c0,.36314.10785.55068.43061.55068a.55226.55226,0,0,0,.183-.02338v1.3123a2.78334,2.78334,0,0,1-.81819.11715,1.4256,1.4256,0,0,1-1.62576-1.62868V74.15712h1.83031Z"/><path class="cls-23" d="M152.27586,80.77758H148.6365c.10785,1.11332.51695,1.52348,1.066,1.52348.4091,0,.6782-.3047.80757-.86734l1.60424.52731a2.32844,2.32844,0,0,1-2.43333,1.68739c-1.85209,0-2.89634-1.19514-2.89634-3.35113,0-2.39029,1.17362-3.56206,2.74546-3.56206,1.95967,0,2.74572,1.359,2.74572,3.02306Zm-1.7012-1.33568c-.01089-.91409-.42-1.371-.94756-1.371-.45213,0-.86123.3047-.97971,1.371Z"/><path class="cls-23" d="M162.33166,80.602c-.463,2.07391-1.49666,3.04644-3.21938,3.04644-2.39029,0-3.62847-1.58193-3.62847-4.68707,0-2.89422,1.35666-4.68681,3.53151-4.68681a3.07122,3.07122,0,0,1,3.19786,2.89422l-2.00271.492c-.10759-1.28892-.51669-1.863-1.30273-1.863-.87212,0-1.37818,1.10137-1.37818,3.08177,0,1.898.56,3.24567,1.44273,3.24567.7539,0,1.12-.51562,1.2921-1.80454Z"/><path class="cls-23" d="M168.93112,80.09805c0,2.49575-1.30273,3.55037-3.00393,3.55037-1.6688,0-3.00394-1.04293-3.00394-3.36282,0-2.496,1.30274-3.55037,3.00394-3.55037C167.59625,76.73523,168.93112,77.77789,168.93112,80.09805Zm-1.88423.0704c0-1.09-.323-1.96871-1.1197-1.96871-.75364,0-1.1197.62108-1.1197,2.01546,0,1.08968.323,1.96844,1.1197,1.96844C166.68083,82.18364,167.04689,81.55114,167.04689,80.16845Z"/><path class="cls-23" d="M171.633,77.75451a1.86552,1.86552,0,0,1,1.766-1.01928,1.59488,1.59488,0,0,1,1.6579,1.25358,1.95621,1.95621,0,0,1,1.95968-1.25358c1.10907,0,1.95967.71459,1.95967,2.27314v4.5229h-1.83057V79.43021c0-.9024-.2691-1.21878-.8506-1.21878-.5382,0-.9473.35171-.9473,1.21878v4.10106h-1.83057V79.43021c0-.9024-.25821-1.21878-.8506-1.21878-.52758,0-.93667.35171-.93667,1.21878v4.10106h-1.83031V76.85238h1.71183v.90213Z"/><path class="cls-23" d="M182.02247,77.68412a1.86543,1.86543,0,0,1,1.64754-.94889c1.60424,0,2.47636,1.23021,2.47636,3.48,0,2.00377-1.07667,3.43322-2.58422,3.43322a1.76826,1.76826,0,0,1-1.58272-.89045h-.043a7.41959,7.41959,0,0,1,.16151,1.76921v1.69908H180.2676V76.85238h1.83031v.03506a3.46254,3.46254,0,0,1-.10759.79668Zm2.26118,2.53108c0-1.31229-.45213-2.02715-1.15211-2.02715-.66757,0-1.06577.71486-1.06577,2.03884,0,1.33594.35517,1.99208,1.1197,1.99208C183.83152,82.219,184.28365,81.51581,184.28365,80.2152Z"/><path class="cls-23" d="M188.94522,81.69167c0,.36314.10786.55068.43062.55068a.55229.55229,0,0,0,.183-.02338v1.3123a2.78346,2.78346,0,0,1-.8182.11715,1.42559,1.42559,0,0,1-1.62575-1.62868V74.15712h1.8303Z"/><path class="cls-23" d="M195.37281,80.77758h-3.63936c.10785,1.11332.517,1.52348,1.066,1.52348.4091,0,.6782-.3047.80757-.86734l1.60424.52731a2.32844,2.32844,0,0,1-2.43332,1.68739c-1.85209,0-2.89635-1.19514-2.89635-3.35113,0-2.39029,1.17363-3.56206,2.74546-3.56206,1.95968,0,2.74572,1.359,2.74572,3.02306Zm-1.7012-1.33568c-.01089-.91409-.42-1.371-.94756-1.371-.45213,0-.86123.3047-.97971,1.371Z"/><path class="cls-23" d="M198.07471,77.75451a1.86553,1.86553,0,0,1,1.766-1.01928,1.59488,1.59488,0,0,1,1.6579,1.25358,1.95621,1.95621,0,0,1,1.95968-1.25358c1.10907,0,1.95967.71459,1.95967,2.27314v4.5229h-1.83057V79.43021c0-.9024-.2691-1.21878-.8506-1.21878-.5382,0-.9473.35171-.9473,1.21878v4.10106h-1.83057V79.43021c0-.9024-.25821-1.21878-.8506-1.21878-.52757,0-.93667.35171-.93667,1.21878v4.10106h-1.83031V76.85238h1.71183v.90213Z"/><path class="cls-23" d="M211.87745,80.77758h-3.63936c.10785,1.11332.517,1.52348,1.066,1.52348.4091,0,.6782-.3047.80757-.86734l1.60424.52731a2.32844,2.32844,0,0,1-2.43333,1.68739c-1.85209,0-2.89634-1.19514-2.89634-3.35113,0-2.39029,1.17362-3.56206,2.74546-3.56206,1.95967,0,2.74572,1.359,2.74572,3.02306Zm-1.7012-1.33568c-.01089-.91409-.42-1.371-.94756-1.371-.45213,0-.86123.3047-.97971,1.371Z"/><path class="cls-23" d="M214.57935,77.75451a1.86552,1.86552,0,0,1,1.766-1.01928c1.09818,0,1.94878.71459,1.94878,2.27314v4.5229h-1.83057V79.43021c0-.9024-.25821-1.21878-.8506-1.21878-.52758,0-.93667.35171-.93667,1.21878v4.10106H212.846V76.85238h1.71183v.90213Z"/><path class="cls-23" d="M221.70665,81.28151c0,.64446.27973.86707.89364.86707a1.53806,1.53806,0,0,0,.51668-.09377v1.40606a3.86578,3.86578,0,0,1-1.20577.18755A1.83713,1.83713,0,0,1,219.93,81.59789V78.25845h-.883V76.85238h.883v-.89072l1.77664-1.11306v2.00378h1.32425v1.40607h-1.32425Z"/><path class="cls-23" d="M228.95244,81.32826c0,.42185.14.62108.41972.62108a.38179.38179,0,0,0,.15089-.01169v1.40607a2.35808,2.35808,0,0,1-.98.18755c-.69971,0-1.02274-.25768-1.17336-.76161a2.07467,2.07467,0,0,1-3.76846-1.11333c0-1.38242,1.02274-2.12065,2.6485-2.12065a4.78494,4.78494,0,0,1,.86149.08182v-.39821c0-.80863-.28-1.18346-.77516-1.18346-.50606,0-.78605.33977-.90453,1.08969l-1.5612-.31639a2.45576,2.45576,0,0,1,2.59483-2.0739,2.24337,2.24337,0,0,1,2.48726,2.39029Zm-1.8412-.42158a2.99379,2.99379,0,0,0-.76453-.09377c-.56,0-.91516.29274-.91516.79667a.67852.67852,0,0,0,.743.69148C226.79884,82.30106,227.11124,81.87921,227.11124,80.90668Z"/><path class="cls-23" d="M231.81584,78.6099c.17214-1.26554.71061-1.91,1.57184-1.91a2.55842,2.55842,0,0,1,.51694.047v1.66374a2.57839,2.57839,0,0,0-.51694-.04675c-.79668,0-1.27033.22261-1.27033,1.55828v3.60908h-1.8412V76.85238h1.48577V78.6099Z"/><path class="cls-23" d="M240.07374,76.85238l-2.30395,7.49921c-.36606,1.20683-.883,1.99182-2.12119,1.99182a1.89532,1.89532,0,0,1-1.59362-.7029l1.00149-1.08969c.17214.29275.31213.39821.51668.39821.25848,0,.44151-.25768.61391-.80837l.19366-.60939h-.39821l-2.03512-6.67889h1.88424l.84,2.941a12.30543,12.30543,0,0,1,.38758,2.1443h.06455a18.226,18.226,0,0,1,.43062-2.13261l.82908-2.95266Z"/><path class="cls-23" d="M249.31108,76.09077h-2.26092v7.4405H245.112v-7.4405h-2.26092V74.39169h6.46Z"/><path class="cls-23" d="M251.72262,77.70776a1.86042,1.86042,0,0,1,1.73361-.97253c1.09819,0,1.94879.71459,1.94879,2.27314v4.5229h-1.83057V79.43021c0-.9024-.25821-1.21878-.8506-1.21878-.52758,0-.93668.35171-.93668,1.21878v4.10106h-1.8303V74.15712h1.8303v1.664a11.0626,11.0626,0,0,1-.1291,1.88662Z"/><path class="cls-23" d="M261.86475,80.77758h-3.63936c.10785,1.11332.517,1.52348,1.066,1.52348.4091,0,.6782-.3047.80757-.86734l1.60424.52731a2.32844,2.32844,0,0,1-2.43333,1.68739c-1.85208,0-2.89634-1.19514-2.89634-3.35113,0-2.39029,1.17363-3.56206,2.74546-3.56206,1.95967,0,2.74572,1.359,2.74572,3.02306Zm-1.7012-1.33568c-.01089-.91409-.42-1.371-.94756-1.371-.45213,0-.86123.3047-.97971,1.371Z"/><path class="cls-23" d="M264.373,78.6099c.17214-1.26554.71061-1.91,1.57183-1.91a2.55846,2.55846,0,0,1,.517.047v1.66374a2.57842,2.57842,0,0,0-.517-.04675c-.79667,0-1.27032.22261-1.27032,1.55828v3.60908h-1.8412V76.85238h1.48576V78.6099Z"/><path class="cls-23" d="M272.02787,81.32826c0,.42185.14.62108.41972.62108a.38179.38179,0,0,0,.15089-.01169v1.40607a2.35722,2.35722,0,0,1-.98.18755c-.69971,0-1.02274-.25768-1.17336-.76161a2.07467,2.07467,0,0,1-3.76847-1.11333c0-1.38242,1.02274-2.12065,2.6485-2.12065a4.78485,4.78485,0,0,1,.86149.08182v-.39821c0-.80863-.28-1.18346-.77516-1.18346-.50605,0-.786.33977-.90452,1.08969l-1.56121-.31639a2.45576,2.45576,0,0,1,2.59484-2.0739,2.24337,2.24337,0,0,1,2.48725,2.39029Zm-1.8412-.42158a2.99379,2.99379,0,0,0-.76453-.09377c-.56,0-.91515.29274-.91515.79667a.67852.67852,0,0,0,.743.69148C269.87427,82.30106,270.18667,81.87921,270.18667,80.90668Z"/><path class="cls-23" d="M275.10645,77.68412a1.86545,1.86545,0,0,1,1.64754-.94889c1.60425,0,2.47636,1.23021,2.47636,3.48,0,2.00377-1.07666,3.43322-2.58421,3.43322a1.76825,1.76825,0,0,1-1.58272-.89045h-.043a7.419,7.419,0,0,1,.16152,1.76921v1.69908h-1.83031V76.85238h1.83031v.03506a3.46254,3.46254,0,0,1-.10759.79668Zm2.26119,2.53108c0-1.31229-.45213-2.02715-1.15211-2.02715-.66757,0-1.06578.71486-1.06578,2.03884,0,1.33594.35517,1.99208,1.1197,1.99208C276.91551,82.219,277.36764,81.51581,277.36764,80.2152Z"/><path class="cls-23" d="M285.50679,76.85238l-2.304,7.49921c-.36606,1.20683-.883,1.99182-2.12119,1.99182a1.89532,1.89532,0,0,1-1.59362-.7029l1.00149-1.08969c.17214.29275.31214.39821.51668.39821.25848,0,.44151-.25768.61391-.80837l.19366-.60939h-.3982l-2.03513-6.67889h1.88424l.84,2.941a12.30543,12.30543,0,0,1,.38758,2.1443h.06455a18.226,18.226,0,0,1,.43062-2.13261l.82908-2.95266Z"/><path class="cls-23" d="M295.34741,80.602c-.463,2.07391-1.49665,3.04644-3.21937,3.04644-2.39029,0-3.62847-1.58193-3.62847-4.68707,0-2.89422,1.35666-4.68681,3.53151-4.68681a3.07122,3.07122,0,0,1,3.19786,2.89422l-2.00272.492c-.10758-1.28892-.51668-1.863-1.30273-1.863-.87212,0-1.37817,1.10137-1.37817,3.08177,0,1.898.56,3.24567,1.44272,3.24567.75391,0,1.12-.51562,1.29211-1.80454Z"/><path class="cls-23" d="M301.4302,80.77758h-3.63937c.10786,1.11332.51695,1.52348,1.066,1.52348.40909,0,.67819-.3047.80756-.86734l1.60424.52731a2.32843,2.32843,0,0,1-2.43332,1.68739c-1.85209,0-2.89635-1.19514-2.89635-3.35113,0-2.39029,1.17363-3.56206,2.74546-3.56206,1.95968,0,2.74573,1.359,2.74573,3.02306ZM299.729,79.4419c-.01089-.91409-.42-1.371-.94756-1.371-.45213,0-.86123.3047-.9797,1.371Z"/><path class="cls-23" d="M304.13209,77.75451a1.86554,1.86554,0,0,1,1.766-1.01928c1.09818,0,1.94879.71459,1.94879,2.27314v4.5229h-1.83058V79.43021c0-.9024-.25821-1.21878-.8506-1.21878-.52757,0-.93667.35171-.93667,1.21878v4.10106h-1.83031V76.85238h1.71183v.90213Z"/><path class="cls-23" d="M311.2594,81.28151c0,.64446.27972.86707.89363.86707a1.538,1.538,0,0,0,.51668-.09377v1.40606a3.86578,3.86578,0,0,1-1.20577.18755,1.83713,1.83713,0,0,1-1.98119-2.05053V78.25845h-.883V76.85238h.883v-.89072l1.77665-1.11306v2.00378h1.32425v1.40607H311.2594Z"/><path class="cls-23" d="M318.59151,80.77758h-3.63936c.10786,1.11332.517,1.52348,1.066,1.52348.4091,0,.6782-.3047.80757-.86734L318.43,81.961a2.32844,2.32844,0,0,1-2.43332,1.68739c-1.85209,0-2.89635-1.19514-2.89635-3.35113,0-2.39029,1.17363-3.56206,2.74546-3.56206,1.95968,0,2.74572,1.359,2.74572,3.02306Zm-1.7012-1.33568c-.01089-.91409-.42-1.371-.94756-1.371-.45213,0-.86123.3047-.97971,1.371Z"/><path class="cls-23" d="M321.09975,78.6099c.17214-1.26554.71061-1.91,1.57183-1.91a2.55846,2.55846,0,0,1,.517.047v1.66374a2.57842,2.57842,0,0,0-.517-.04675c-.79667,0-1.27032.22261-1.27032,1.55828v3.60908h-1.8412V76.85238h1.48577V78.6099Z"/></svg>